<?xml version="1.0" encoding="UTF-8"?><svg id="Layer_2" xmlns="http://www.w3.org/2000/svg" width="68.24" height="100.72" xmlns:xlink="http://www.w3.org/1999/xlink" viewBox="0 0 68.24 100.72"><defs><style>.cls-1{fill:#e0a20f;}</style></defs><g id="Layer_1-2"><image width="215" height="387" transform="translate(0 7.84) scale(.24)" xlink:href="russian.png"/><g><path class="cls-1" d="M32.1,4.27c1.22,.01,2.82,.13,4.29,.42,.16,.03,.32,.06,.5,.11,.08,.02,.15,.08,.19,.16,.02,.08-.02,.13-.08,.13-.15-.03-.3-.07-.45-.1s-.31-.05-.47-.09c-.01,0-.01,.02-.01,.02,0,.28-.13,.61-.34,.95l-.03,.02-.04,.13c-.16,.63-.32,1.19-.44,1.78-.09,.46-.16,.94-.16,1.51,0,.06-.07,.08-.14,.03-.09-.05-.15-.14-.15-.21,0-.46,.09-1.1,.22-1.75,.06-.28,.12-.57,.2-.84l-.07,.07c-.72,.64-1.9,1.23-3.13,1.02-1.65-.29-2.6-1.81-2.06-4.04,.47-1.93,2.37-3.86,4.52-3.55,.7,.11,1.29,.46,1.58,1.15,.1,.23,.12,.52,.06,.79-.09,.43-.37,.86-.89,1.13-.29,.16-.51,.02-.36-.06,.59-.3,.89-.79,.98-1.22,.03-.17,.03-.34,0-.48-.1-.56-.61-.86-1.19-.98-.09-.02-.16-.03-.25-.04-1.8-.18-3.65,1.48-4.14,3.3-.03,.12-.06,.24-.08,.36-.35,1.72,.28,3.07,1.69,3.35,1.33,.26,2.82-.67,3.51-1.57l.08-.11h0c.04-.15,.09-.29,.13-.4,.05-.17,.11-.31,.15-.41-1.2-.18-2.45-.26-3.44-.26-.07,0-.17-.09-.21-.16-.05-.08-.04-.15,.03-.15Z"/><path class="cls-1" d="M37.27,6.01c-.01-.08,0-.17,0-.26,.08-.38,.41-.71,.84-.64,.27,.05,.46,.36,.32,.59-.17,.25-.58,.38-.88,.32,0,.17,.24,.5,.54,.57,.81,.16,1.53-.32,1.97-.62,.24-.17,.16,.02,0,.24-.34,.45-.98,.76-1.58,.67-.51-.08-1.15-.3-1.21-.87Zm.32-.2c.39-.09,.68-.27,.61-.39-.14-.22-.57,.17-.61,.39Z"/><path class="cls-1" d="M39.92,6.86c.07,.03,.17,.06,.28,.08,.28,.06,.63,.08,.86,.08-.19-.16-.49-.39-.64-.51-.2-.17-.42-.31-.4-.57,.02-.47,1.02-.55,1.47-.53,.14,.01,.28,.21,.19,.28-.34,.05-1.15,.03-1.29,.24-.08,.11,.1,.24,.25,.37,.29,.25,.52,.43,.67,.6,.16,.2-.06,.41-.29,.42-.16,.01-.39,0-.62-.05s-.42-.11-.53-.19c-.09-.07-.13-.3,.05-.22Z"/><path class="cls-1" d="M42.19,7.18c.1-.5,.2-.96,.28-1.29,.09-.4,.21-.91,.34-1.43-.73-.08-1.41-.17-2.12-.19-.17,0-.3-.27-.15-.27,.63,.01,1.26,.07,2.33,.2,.17-.66,.35-1.33,.49-1.86,.02-.14,.34-.02,.33,.16-.15,.42-.34,1.08-.51,1.74,.08,.02,.17,.02,.25,.03,.74,.1,1.74,.22,2.58,.39,.49,.1,.93,.22,1.23,.35,.07,.05,.14,.15,.16,.21,0,.07-.06,.1-.12,.07-.37-.16-.85-.28-1.36-.38-.92-.19-1.94-.31-2.61-.39-.07,0-.13,0-.2-.02l-.35,1.43c-.12,.55-.31,1.35-.47,2.13-.18,.88-.31,1.73-.29,2.15-.01,.2-.24-.03-.27-.22-.03-.32,.2-1.66,.44-2.81Z"/><path class="cls-1" d="M43.29,7.1c.04-.19,.17-.36,.42-.46,.26-.11,.57-.13,.87-.06,.24,.05,.47,.15,.67,.29h0l.19-.17c.07-.08,.32,.16,.24,.26-.07,.12-.18,.26-.23,.42-.04,.14-.03,.33,.12,.4,.42,.18,1.25-.11,1.63-.39,.18-.12,.26,.12-.31,.5-.26,.17-.91,.33-1.25,.17-.27-.13-.45-.33-.5-.67-.28,.17-.94,.49-1.4,.4-.11-.02-.21-.07-.29-.15-.15-.16-.2-.34-.16-.53Zm1.77-.1c-.08-.04-.2-.08-.33-.11-.43-.09-1.03-.04-1.21,.34-.05,.1-.01,.2,.11,.24,.42,.03,1.05-.21,1.42-.46Z"/><path class="cls-1" d="M46.97,8.65c-.11-.29-.05-.91,.1-1.63,.29-1.43,.91-3.23,1.09-3.57,.02-.05,.07-.05,.15,0,.08,.06,.13,.14,.12,.19-.08,.15-.75,2.17-1.06,3.65-.16,.77-.21,1.39-.05,1.56,.39,.37,1.72-.82,1.88-.96,.11-.1,.08,.12,.03,.21-.24,.4-1.12,1.19-1.66,1.08-.28-.06-.48-.26-.61-.54Z"/><path class="cls-1" d="M49.03,8.57c.1-.5,.2-.96,.28-1.29,.09-.4,.21-.91,.34-1.43-.73-.08-1.41-.17-2.12-.19-.17,0-.3-.27-.15-.27,.63,.01,1.26,.07,2.33,.2,.17-.66,.35-1.33,.49-1.86,.02-.14,.34-.02,.33,.16-.15,.42-.34,1.08-.51,1.74,.08,.02,.17,.02,.25,.03,.74,.1,1.74,.22,2.58,.39,.49,.1,.93,.22,1.23,.35,.07,.05,.14,.15,.16,.21,0,.07-.06,.1-.12,.07-.37-.16-.85-.28-1.36-.38-.92-.19-1.94-.31-2.61-.39-.07,0-.13,0-.2-.02l-.35,1.43c-.12,.55-.31,1.35-.47,2.13-.18,.88-.31,1.73-.29,2.15-.01,.2-.24-.03-.27-.22-.03-.32,.2-1.66,.44-2.81Z"/><path class="cls-1" d="M57.31,10.75c-.11-.29-.05-.91,.1-1.63,.29-1.43,.91-3.23,1.09-3.57,.02-.05,.07-.05,.15,0,.08,.06,.13,.14,.12,.19-.08,.15-.75,2.17-1.06,3.65-.16,.77-.21,1.39-.05,1.56,.39,.37,1.72-.82,1.88-.96,.11-.1,.08,.12,.03,.21-.24,.4-1.12,1.19-1.66,1.08-.28-.06-.48-.26-.61-.54Z"/><path class="cls-1" d="M59.2,10.33c.04-.19,.17-.36,.42-.46,.26-.11,.57-.13,.87-.06,.24,.05,.47,.15,.67,.29h0l.19-.17c.07-.08,.33,.16,.24,.26-.07,.12-.18,.26-.23,.42-.04,.14-.03,.33,.12,.4,.42,.18,1.25-.11,1.63-.39,.18-.12,.26,.12-.31,.5-.26,.17-.91,.33-1.25,.17-.27-.13-.45-.33-.5-.67-.28,.17-.94,.49-1.4,.4-.11-.02-.21-.07-.29-.15-.15-.16-.2-.34-.16-.53Zm1.77-.1c-.08-.04-.2-.08-.33-.11-.43-.09-1.03-.04-1.21,.34-.05,.1-.01,.2,.11,.24,.42,.03,1.05-.21,1.42-.46Z"/><path class="cls-1" d="M64.98,10.72c.18-.06,.26,.21,.22,.35,.12,.1,.29,.17,.48,.2,.25,.05,.55,.05,.86-.01,.26-.03,.03,.17-.12,.22-.3,.09-.58,.11-.83,.05-.15-.03-.29-.09-.42-.16-.05,.27-.28,.68-.63,.62-.21-.02-.48-.26-.6-.55-.15,.24-.37,.48-.65,.42-.08-.02-.17-.06-.25-.13-.12-.12-.16-.27-.17-.38-.02-.13,0-.26,.03-.39,.06-.25,.29-.64,.48-.8,.03-.05,.11-.01,.17,.05,.05,.07,.07,.16,.02,.19-.15,.15-.38,.47-.45,.79-.02,.09-.02,.16-.01,.25,0,.13,.14,.17,.21,.16,.23-.03,.55-.57,.6-.68,.02-.08,.02-.09,.04-.11,.05-.12,.29,.06,.25,.19,.01,.02,0,.04-.02,.08,0,.17-.04,.41,.12,.56,.33,.34,.58-.28,.62-.54-.07-.21-.02-.34,.08-.39Z"/><path class="cls-1" d="M66.45,12.24c.07,.03,.17,.06,.28,.08,.28,.06,.63,.08,.86,.08-.19-.16-.49-.39-.64-.51-.2-.17-.42-.31-.4-.57,.02-.47,1.02-.55,1.47-.53,.14,.01,.28,.21,.19,.28-.34,.05-1.15,.03-1.29,.24-.08,.11,.1,.24,.25,.37,.29,.25,.52,.43,.67,.6,.16,.2-.06,.41-.29,.42-.16,.01-.39,0-.62-.05s-.42-.11-.53-.19c-.09-.07-.13-.3,.05-.22Z"/></g></g></svg>