<?xml version="1.0" encoding="UTF-8"?><svg xmlns="http://www.w3.org/2000/svg" width="197.94" height="71.15" xmlns:xlink="http://www.w3.org/1999/xlink" viewBox="0 0 197.94 71.15"><defs><style>.cls-1{mix-blend-mode:difference;}.cls-2{fill:#e0a20f;}.cls-3{isolation:isolate;}.cls-4{fill:#0a0f0d;}.cls-5{mix-blend-mode:screen;opacity:.5;}</style></defs><g class="cls-3"><g id="Layer_2"><g id="Layer_1-2"><rect class="cls-2" x="8.74" y="6.05" width="189.19" height="65.11"/><g class="cls-1"><rect class="cls-4" x="1" y="1.1" width="187.19" height="63.11"/><path class="cls-2" d="M187.19,2.1V63.21H2V2.1H187.19m2-2H0V65.21H189.19V.1h0Z"/></g><g><path class="cls-4" d="M43.08,45.15l-2.14-7.68h-9.72l-2.14,7.68h-5.54l6.9-23.97h11.25l6.94,23.97h-5.54Zm-10.54-12.44h7.07l-2.86-10.17h-1.39l-2.82,10.17Z"/><path class="cls-4" d="M51,45.15V21.18h8.43c6.7,0,9.93,1.16,9.93,5.88s-3.23,4.59-5.78,4.79v1.36c3.64,.14,7.55,.48,7.55,5.58,0,5.44-5.03,6.36-11.29,6.36h-8.84Zm5.47-14.86h3.67c2.18,0,3.74,0,3.74-2.18s-1.56-2.14-3.74-2.14h-3.67v4.32Zm0,10.06h4.04c3.23,0,5.13,.03,5.13-2.62s-1.9-2.69-5.13-2.69h-4.04v5.3Z"/><path class="cls-4" d="M84.73,20.84c7.58,0,12.21,5.34,12.21,12.31s-4.62,12.34-12.21,12.34-12.24-5.34-12.24-12.34,4.62-12.31,12.24-12.31Zm0,19.85c4.52,0,6.77-2.92,6.77-7.55s-2.24-7.51-6.77-7.51-6.77,2.92-6.77,7.51,2.24,7.55,6.77,7.55Z"/><path class="cls-4" d="M99.65,21.18h5.47v12.61c0,4.28,.34,6.9,5.34,6.9s5.41-2.62,5.41-6.9v-12.61h5.47v15.06c0,5.98-3.77,9.25-10.88,9.25s-10.81-3.26-10.81-9.25v-15.06Z"/><path class="cls-4" d="M144.84,21.18v4.79h-7.82v19.17h-5.44V25.97h-7.85v-4.79h21.11Z"/></g><path class="cls-4" d="M177.1,36.87h-.07c-.11-.17-.14-.33,.01-.49,.02,0,.04,0,.06,0v.48Z"/><path class="cls-4" d="M159.98,30.11c-.4,.11-.64,.39-.82,.73-.48,.9-.86,1.85-1.38,2.73-.27,.45-.53,.91-.82,1.35-.07,.11-.17,.22-.14,.34,.11,.45-.12,.8-.29,1.17-.29,.63-.51,1.26-.4,1.98,.06,.37-.1,.74-.26,1.09-.11,.25-.22,.51-.02,.78,.07,.1,.05,.22,.02,.33-.33,1.71-.71,3.41-1.18,5.09-.13,.47-.3,.94-.82,1.25,.5-2.49,1.58-4.78,1.61-7.33-.29,.17-.35,.43-.39,.68-.19,1.52-.7,2.96-1.07,4.44-.09,.37-.29,.69-.52,1-.17-.15-.1-.29-.05-.43,.56-1.71,.98-3.46,1.36-5.22,.09-.42,.11-.82-.06-1.22-.13-.32-.12-.65-.03-.98,.37-1.31,.74-2.63,1.09-3.94,.09-.32,.29-.54,.5-.77,.09-.09,.18-.18,.2-.31,.11-.67,.5-1.24,.72-1.87,.04-.11,.09-.19,.22-.13,.15,.06,.08,.16,.04,.25-.07,.15-.15,.31-.22,.47-.04,.09-.03,.18,.07,.24,.11,.06,.14-.04,.18-.1,.19-.25,.33-.52,.28-.86-.04-.26,.05-.5,.19-.72,.1-.15,.21-.31,.34-.43,.87-.76,1.76-1.51,2.7-2.19,.42-.31,.89-.51,1.45-.47,.25,.02,.44-.17,.67-.24,.39-.11,.75-.2,1.17-.06,.54,.18,1.1,.24,1.59,.61,.26,.2,.63,.27,.96,.36,.3,.09,.54,.24,.75,.47,.36,.39,.72,.77,1.07,1.17,.66,.73,.96,1.63,1.16,2.57,.25,1.18,.45,2.38,.17,3.58-.23,.97-.39,1.96-.71,2.9-.18,.53-.56,1.03-.95,1.45-.27,.29-.74,.34-1.16,.28-1.13-.16-2.09-.64-2.84-1.54-.18-.22-.41-.41-.68-.51-.05-.02-.11-.05-.16,0-.06,.05-.01,.11,0,.16,.06,.23,.19,.42,.34,.59,.89,1.01,2.03,1.6,3.33,1.88,.39,.09,.78,.02,1.15-.13,.29-.11,.53-.29,.64-.59,.1-.28,.24-.51,.49-.68,.07-.05,.13-.14,.14-.23,.3-1.36,.77-2.69,.83-4.1,.05-1.24,.04-2.5-.37-3.68-.79-2.32-2.27-4.01-4.7-4.74-.2-.06-.4-.09-.61-.09-.43,0-.86,.05-1.3-.06-.4-.1-.79,.09-1.15,.28-.07,.04-.17,.13-.2,.11-.45-.24-.71,.26-1.09,.28-.21,0-.34,.18-.46,.33-.33,.43-.76,.77-1.18,1.11-.18,.15-.39,.24-.62,.28-.19,.03-.26-.03-.18-.23,.13-.31,.35-.54,.64-.7,.36-.19,.67-.44,.94-.75,.31-.35,.77-.45,1.17-.64,.79-.36,1.64-.58,2.51-.53,.73,.03,1.45,.17,2.18,.25,.12,.01,.24,.07,.35,.14,1.41,.89,2.71,1.87,3.55,3.38,.68,1.2,1.39,2.36,1.78,3.7,.52,1.81,.64,3.61,.3,5.47-.14,.79-.46,1.48-.79,2.18-.11,.24-.34,.37-.56,.5-.28,.16-.5,.37-.57,.7-.04,.17-.16,.28-.3,.36-.25,.16-.52,.29-.81,.37-.1,.03-.25,.13-.32,.03-.09-.13,.06-.25,.14-.35,.16-.22,.4-.34,.64-.46,.36-.18,.62-.45,.84-.79,.81-1.23,1.34-2.57,1.57-4.04,.05-.31,.07-.64-.04-.92-.36-.92-.38-1.9-.54-2.86-.09-.53-.21-1.06-.42-1.56-.07-.17-.12-.34-.31-.48-.09,.35-.02,.67,.07,.98,.18,.6,.34,1.19,.26,1.82-.03,.27,.02,.56,.16,.8,.44,.74,.41,1.54,.28,2.34-.07,.43-.17,.86-.22,1.29-.12,1.05-.61,1.94-1.3,2.69-.72,.79-1.63,1.26-2.78,.92-.49-.15-.99-.28-1.49-.41-.08-.02-.2-.14-.26,.02-.04,.11-.01,.24,.09,.31,.09,.07,.2,.12,.3,.16,.57,.23,1.16,.37,1.75,.52,.16,.04,.37,.06,.33,.31-.04,.24-.23,.27-.42,.25-.59-.05-1.12-.32-1.67-.52-.4-.15-.65-.37-.76-.82-.07-.31-.42-.49-.71-.58-.57-.19-1.02-.53-1.38-.98-1.28-1.61-2.09-3.39-1.87-5.49,.14-1.38,.61-2.68,1.39-3.84,.11-.16,.22-.32,.33-.48,.64-.9,1.45-1.09,2.46-.63,1.18,.53,1.96,1.41,2.47,2.57,.15,.34,.2,.71,.06,1.07-.02,.06-.04,.14-.12,.15-.08,.01-.11-.07-.14-.13-.07-.17-.13-.34-.2-.51-.25-.59-.51-1.17-.91-1.69-.46-.59-1.08-.86-1.77-.96-.7-.1-1.62,.53-1.98,1.32-.2,.45-.45,.88-.61,1.35-.3,.85-.41,1.71-.13,2.6,.47,1.49,1.22,2.84,2.11,4.12,.41,.59,.98,.96,1.63,1.22,.53,.22,1.09,.37,1.63,.55,.28,.09,.54,.07,.8-.07,.44-.25,.88-.5,1.3-.78,.18-.12,.29-.3,.37-.49,.48-1.09,.93-2.2,1.16-3.38,.07-.33,.07-.65-.04-.98,.07,.78-.21,1.47-.5,2.16-.2,.48-.27,1-.49,1.47-.24,.52-.52,1.02-.98,1.4-.46,.38-1,.48-1.56,.33-.56-.15-1.12-.34-1.66-.58-1.2-.55-1.99-1.49-2.54-2.66-.42-.89-.7-1.82-1.04-2.74-.12-.31-.05-.64-.04-.96,.04-1.21,.51-2.21,1.39-3.04,.61-.57,1.25-.52,1.93-.17,.67,.35,1.18,.87,1.65,1.44,.12,.15,.19,.34,.2,.54,0,.16,.01,.38-.11,.44-.14,.07-.28-.13-.38-.24-.26-.29-.48-.61-.74-.9-.86-.96-2.1-1.07-2.83,.29-.36,.67-.39,1.39-.32,2.11,.21,2.1,1.65,3.22,3.36,4.09,.33,.17,.72,.24,1.06,.39,.39,.17,.68,.06,.95-.22,.64-.64,1-1.41,1.16-2.3,.16-.94,.33-1.88,.33-2.83,0-1.69-.24-3.32-1.32-4.71-.5-.65-1.18-1.03-1.91-1.38-.49-.23-.95-.52-1.53-.39-.17,.04-.34,.06-.5,.11-.83,.29-1.67,.56-2.5,.88-.68,.26-1.17,.8-1.69,1.28-.05,.08-.14,.01-.2,.06Z"/><path class="cls-4" d="M162.94,47.74c-.71-.23-1.22-.72-1.71-1.24-.92-.98-1.89-1.92-2.38-3.21-.35-.94-.63-1.89-.86-2.86-.1-.41-.1-.82-.03-1.23,.09-.59,.08-1.19,0-1.78-.04-.32,0-.63,.15-.93,.29,.27,.37,.67,.2,1.07-.03,.08-.09,.13-.08,.24,.14,1.08,.59,2.05,1.07,3.02,.73,1.48,1.48,2.95,2.55,4.24,.45,.54,.95,1.03,1.54,1.42,.27,.18,.54,.33,.89,.45-.08-.36-.3-.56-.53-.75-1.51-1.24-2.68-2.76-3.54-4.48-.39-.79-.85-1.55-1.14-2.4-.44-1.31-.39-2.61-.3-3.94,.06-.82,.2-1.58,.61-2.29,.1-.18,.13-.39,.14-.6,.01-.2,.02-.39,.32-.38,.18,0,.16-.18,.13-.28-.07-.22,.02-.38,.17-.52,.31-.3,.54-.65,.7-1.05,.1-.25,.29-.43,.52-.58,.81-.5,1.65-.97,2.53-1.32,.63-.25,1.33-.22,1.96,0,.69,.24,1.33,.62,1.88,1.13,.74,.69,1.07,1.57,1.27,2.54,.26,1.25,.39,2.49,.05,3.75-.32,1.17-1.6,1.98-2.79,1.76-.24-.04-.47-.1-.71-.14-.31-.06-.54-.24-.73-.48-.09-.12-.21-.26-.12-.4,.1-.15,.24,0,.36,.04,.53,.16,1.05,.34,1.61,.36,.79,.04,1.34-.31,1.68-1.01,.31-.64,.4-1.32,.4-2.01,0-1.13-.25-2.22-.72-3.27-.96-2.16-3.38-2.28-4.78-1.45-.27,.16-.52,.33-.77,.52-.14,.11-.29,.26-.45,.31-.53,.17-.82,.56-1.07,1.01-.29,.52-.56,1.05-.86,1.56-.27,.45-.61,.87-.66,1.4-.09,.95-.4,1.87-.41,2.84-.02,1.08,.22,2.09,.68,3.06,.42,.88,.92,1.72,1.53,2.49,.32,.4,.6,.81,.74,1.31,.05,.17,.14,.31,.26,.44,.57,.64,1.14,1.29,1.77,1.88,1.21,1.12,2.65,1.37,4.23,1.14,.56-.08,1.06-.29,1.5-.65,.11-.09,.25-.18,.39-.22,.59-.16,.98-.57,1.35-1.02,.33-.4,.68-.78,1-1.18,.37-.45,.63-.96,.77-1.52,.03-.11,.07-.23,0-.33-.08-.11-.17-.21-.28-.02,0,0-.02,.02-.02,.03-.11,.88-.91,1.42-1.15,2.24-.04,.14-.15,.25-.26,.36-.73,.68-1.54,1.24-2.49,1.56-.22,.08-.45,.13-.67,.13-.5,0-.98,.05-1.47,.15-.44,.09-.87,0-1.2-.35-.19-.2-.46-.21-.7-.24-.55-.07-.96-.34-1.29-.76-.33-.41-.69-.8-1.08-1.16-.29-.27-.27-.28-.11-.62,.03-.07,0-.18-.04-.26-.11-.28-.3-.51-.49-.74-1.32-1.54-2.17-3.31-2.48-5.32-.11-.72-.11-1.44,.12-2.16,.2,.14,.22,.35,.26,.55,.1,.59,.07,1.19,.06,1.79-.02,.9,.36,1.67,.74,2.44,.26,.53,.61,.99,.94,1.48,.52,.78,1.08,1.54,1.34,2.46,.04,.15,.1,.29,.21,.39,.53,.52,1.07,1.04,1.81,1.27,.08,.02,.16,.04,.22,.09,.97,.8,2.1,.76,3.21,.5,1.39-.32,2.6-.99,3.34-2.29,.42-.73,.82-1.46,1.21-2.2,.12-.22,.24-.46,.27-.7,.13-1.23,.52-2.45,.28-3.71-.04-.21-.08-.45,0-.65,.24-.54,.17-1.08,.03-1.62-.94-3.33-2.52-6.27-5.3-8.45-1.13-.88-2.4-1.49-3.84-1.66-.73-.09-1.43,.19-2.15,.25-.53,.05-.98,.2-1.39,.53-.23,.18-.52,.29-.87,.28,.11-.36,.38-.53,.65-.69,.7-.41,1.46-.67,2.26-.78,1.99-.28,3.82,.05,5.37,1.43,.45,.41,.91,.81,1.33,1.25,.29,.3,.57,.6,.86,.89,.18,.18,.34,.37,.43,.61,.1,.27,.31,.48,.49,.7,.8,.98,1.41,2.07,1.77,3.28,.58,1.91,1.21,3.8,1.66,5.74,.17,.71,.25,1.43-.16,2.1-.04,.07-.12,.15,.03,.25,.1,.06,.05,.26,.01,.39-.09,.32-.19,.64-.3,.95-.09,.28-.34,.53-.17,.87,0,.02,0,.04-.01,.07-.65,2.19-1.92,3.86-4.06,4.78-.07,.03-.16,.05-.22,.1-.72,.56-1.61,.66-2.45,.82-.49,.1-1,.02-1.49,.18-.07,.02-.16,0-.24-.03-.65-.24-1.31-.43-1.98-.59-.3-.07-.42-.3-.43-.73,.62,.36,1.28,.58,1.96,.75,.98,.24,1.97,.35,2.93-.13,.2-.1,.43-.17,.67-.09,.15,.05,.24-.03,.32-.13,.2-.23,.45-.36,.74-.47,.95-.38,1.65-1.11,2.32-1.85,1.08-1.19,1.57-2.64,1.81-4.2,.06-.41,.21-.8,.31-1.19,.29-1.05,.09-2.07-.21-3.08-.04-.13-.11-.25-.22-.46-.01,.19-.03,.28-.03,.37,0,1.11-.03,2.23-.16,3.33-.14,1.18-.28,2.36-.71,3.49-.2,.52-.58,.87-.96,1.24-.15,.15-.29,.27-.3,.53,0,.27-.26,.42-.47,.56-.53,.35-1.12,.59-1.69,.84-.34,.15-.67,.3-.97,.52-.52,.39-1.14,.29-1.73,.37-.71,.09-1.37-.09-2.06-.27-2.01-.53-3.32-1.92-4.51-3.49-.2-.27-.36-.56-.48-.87-.34-.86-.82-1.67-1.12-2.55-.09-.27-.21-.54-.48-.72-.16,.29-.04,.56,.01,.82,.11,.55,.35,1.07,.6,1.57,.47,.92,.98,1.82,1.55,2.68,.4,.61,.88,1.14,1.51,1.53,.26,.16,.51,.35,.72,.59,.18,.2,.31,.42,.27,.7Z"/><path class="cls-4" d="M168.94,36.66c.15,.24,.18,.46,.07,.7-.12,.27-.25,.54-.35,.82-.09,.25-.28,.35-.51,.26-.26-.11-.42-.03-.6,.15-.16,.16-.35,.44-.59,.07-.03-.04-.09-.06-.12-.01-.16,.24-.36,.09-.52,.03-.4-.17-.79-.36-1.18-.56-.31-.16-.57-.39-.77-.68-.67-.99-1.18-2.04-1.34-3.24-.13-.98,.87-1.82,1.81-1.53,.83,.26,1.51,.72,1.99,1.45,.2,.3,.34,.63,.2,1-.03,.08-.03,.18-.17,.17-.65-.03-1.63-.38-1.83-1.25,0-.04,0-.09,0-.15,.32,.03,.54,.18,.7,.44,.14,.23,.33,.38,.59,.44,.09,.02,.19,.05,.26-.04,.06-.08,.05-.18,0-.26-.06-.11-.13-.22-.21-.31-.43-.47-.97-.8-1.54-1.09-.25-.13-.36-.02-.42,.21-.04,.15-.05,.3,0,.44,.26,.81,.75,1.45,1.5,1.84,.69,.35,1.41-.04,1.73-.8,.63-1.48,.09-2.68-.8-3.82-.49-.63-1.07-1.16-1.87-1.41-.33-.1-.63-.11-.93,.05-1.67,.86-2.91,2.08-3.32,3.98-.02,.09-.04,.19-.02,.27,.08,.25,.23,.51-.22,.58-.05,0-.09,.2-.11,.31-.15,.69-.03,1.37,.13,2.04,.37,1.52,.93,2.95,1.99,4.14,.26,.29,.54,.57,.87,.77,.67,.4,1.24,.91,1.76,1.48,.71,.78,1.61,.84,2.57,.71,.07,0,.15-.03,.19-.07,.32-.36,.76-.35,1.18-.45,.88-.22,1.5-.82,1.92-1.61,.11-.2,.22-.31,.47-.3-.07,.36-.14,.71-.37,1.01-.43,.57-.92,1.09-1.51,1.49-.19,.13-.37,.17-.61,.14-.41-.05-.8,.09-1.15,.27-.23,.12-.43,.21-.71,.13-.33-.09-.67,.05-1.02-.09-.62-.26-1.11-.69-1.59-1.13-.62-.57-1.24-1.12-1.91-1.64-.61-.47-1.07-1.07-1.42-1.75-.63-1.24-1.01-2.55-1.15-3.94-.02-.16-.02-.33-.07-.48-.32-.98,.17-1.83,.42-2.72,.28-1.03,.85-1.84,1.74-2.43,.44-.29,.8-.68,1.27-.93,1.12-.6,2.45-.29,3.24,.52,.84,.86,1.52,1.82,1.71,3.04,.12,.73,.05,1.49-.14,2.18-.15,.52-.6,.97-1.09,1.28-.28,.17-.59,.1-.89-.02-.97-.39-1.68-1-2-2.03-.06-.19-.19-.36-.3-.54-.04-.06-.08-.16-.18-.13-.08,.03-.1,.12-.12,.2-.05,.25-.04,.51,0,.75,.21,.97,.59,1.86,1.28,2.58,.57,.6,1.35,.83,2.11,.9,.57,.05,1.15-.23,1.44-.83,.12-.23,.25-.46,.45-.65Z"/><path class="cls-4" d="M177.04,36.38v.49c-.24-.07-.31-.29-.4-.46-.2-.38-.41-.77-.56-1.18-.74-2.08-1.92-3.9-3.27-5.63-.48-.61-.86-1.28-1.28-1.92-.95-1.46-2.16-2.64-3.87-3.2-.19-.06-.37-.11-.57-.04-.2,.07-.39,0-.57-.07-.49-.17-.98-.33-1.46-.52-.53-.21-1.06-.11-1.6-.07-.3,.02-.6,.04-.89,.07-.31,.03-.62,.05-.88,.25-.23,.18-.41,.38-.8,.34-.29-.03-.63,.24-.92,.42-1.9,1.17-3.89,2.22-5.46,3.86-.57,.6-1.15,1.17-1.48,1.96-.24,.59-.58,1.13-1.03,1.61,.07-.4-.12-.87,.37-1.13,.12-.07,.09-.2,.1-.31,.03-.29,.06-.56,.41-.67,.17-.05,.26-.22,.3-.4,.08-.33,.3-.56,.54-.78,.58-.51,1.16-1,1.58-1.67,.26-.41,.69-.67,1.12-.89,.24-.13,.49-.25,.7-.44,.26-.23,.5-.47,.9-.43,.14,.01,.25-.11,.34-.21,.15-.16,.31-.27,.54-.18,.06,.02,.14,.03,.15-.03,.09-.44,.51-.35,.79-.49,.14-.07,.29-.1,.36-.28,.06-.17,.23-.23,.4-.21,.24,.04,.36-.08,.5-.25,.41-.51,1.02-.58,1.62-.62,.9-.07,1.79,.05,2.67,.23,.15,.03,.33,.13,.43,.07,.42-.25,.72,.03,1.05,.2,.32,.16,.63,.33,.94,.5,.14,.08,.29,.14,.51,.06-.25-.38-.57-.63-1-.73-.37-.09-.73-.19-1.06-.4-.16-.1-.37-.13-.56-.15-.43-.05-.87-.04-1.29-.19-.03-.01-.07-.02-.1,0-.52,.17-1.04-.07-1.57-.02-.23,.02-.49-.06-.63,.23-.02,.04-.12,.06-.19,.06-1.23,.09-2.18,.8-3.15,1.45-.19,.13-.31,.2-.5,0-.1,.28-.33,.35-.55,.48-.66,.4-1.37,.67-2,1.17-1.19,.94-2.01,2.16-2.94,3.31-.3,.36-.41,.46-.68,.59,.05-.41,.25-.74,.49-1.05,.28-.36,.51-.78,.8-1.1,.27-.31,.52-.66,.81-.94,.2-.19,.44-.36,.63-.59,.22-.27,.51-.44,.86-.46,.22-.01,.3-.12,.37-.29,.04-.1,.04-.24,.15-.3,.45-.23,.86-.52,1.19-.92,.03-.04,.08-.05,.12-.02,.08,.07-.08,.13,0,.22,.22-.04,.41-.17,.6-.28,.32-.19,.63-.38,1.01-.41,.23-.02,.37-.17,.49-.35,.03-.04,.1-.1,.03-.15-.33-.22,0-.32,.1-.4,.28-.2,.6-.22,.92-.13,.11,.03,.2,.07,.32-.02,.52-.42,1.14-.53,1.78-.56,.73-.03,1.47-.03,2.2,.06,.11,.01,.26,0,.33,.07,.39,.33,.88,.3,1.34,.41,.57,.13,1.05,.47,1.5,.83,1.41,1.11,2.83,2.21,4.16,3.41,1.21,1.09,2.19,2.38,3.07,3.75,.29,.44,.58,.88,.95,1.26,.19,.2,.34,.43,.39,.75-.28-.09-.44-.28-.61-.45-.66-.68-1.14-1.49-1.67-2.27-.71-1.05-1.55-1.99-2.47-2.86-.08-.08-.17-.14-.32-.26,.03,.23,.13,.35,.21,.47,.8,1.22,1.71,2.36,2.59,3.52,.41,.54,.77,1.11,1.01,1.75,.31,.83,.78,1.58,1.18,2.37,.19,.37,.35,.75,.38,1.17Z"/><path class="cls-4" d="M162.62,42.45c.49,.08,.8,.34,1.09,.64,.72,.76,1.61,1.28,2.52,1.77,.47,.25,.93,.18,1.41,.12,1.24-.16,2.29-.72,3.21-1.53,.45-.4,.69-.93,.86-1.5,.1-.34,.14-.71,.49-.91,.07-.04,.07-.11,.04-.18-.12-.25-.05-.49,.02-.73,.83-2.84,.5-5.58-.73-8.24-.8-1.72-1.78-3.31-3.2-4.6-.87-.79-1.96-1.17-3-1.65-.22-.1-.48-.04-.71,.02-.37,.09-.74,.14-1.12,0-.22-.08-.43,.01-.63,.09-.29,.11-.59,.2-.91,.1-.12-.04-.19,0-.25,.11-.13,.21-.34,.3-.57,.35-2.25,.5-4.07,1.62-5.22,3.69-.41,.74-.95,1.43-1.26,2.21-.38,.93-.81,1.8-1.35,2.65-.26,.41-.34,.94-.51,1.45-.23-.2-.21-.43-.15-.66,.17-.66,.39-1.3,.83-1.84,.14-.17,.27-.35,.32-.57,.28-1.11,1-2,1.51-3,1.09-2.13,2.86-3.42,5.07-4.19,.7-.25,1.41-.49,2.1-.76,.89-.34,1.76-.23,2.67-.06,1.95,.37,3.4,1.5,4.63,2.96,1.47,1.73,2.5,3.69,2.99,5.93,.46,2.07,.5,4.14,0,6.2-.33,1.34-.94,2.55-1.75,3.67-.45,.61-1.1,.88-1.77,1.1-.38,.12-.77,.21-1.14,.37-.45,.2-.9,.2-1.4,.12-1.45-.22-2.36-1.2-3.3-2.16-.28-.29-.56-.57-.77-.98Z"/><path class="cls-4" d="M176.49,38.28c-.94-1.68-1.18-3.65-2.24-5.28-.05,.48,.12,.91,.28,1.33,.7,1.87,1.12,3.82,1.68,5.73,.39,1.34-.03,2.63-.6,3.86-.12,.26-.3,.51-.65,.65,.18-.51,.36-.98,.53-1.45,.33-.95,.55-1.92,.51-2.93,0-.22,.01-.55-.25-.57-.26-.02-.24,.33-.27,.52-.17,1.1-.22,2.21-.51,3.29-.07,.27-.07,.58-.4,.71-.01,0-.03,.01-.03,.02,0,.53-.6,.68-.7,1.19-.08,.47-.27,.95-.9,.96-.1,0-.1,.11-.13,.18-.12,.28-.28,.53-.51,.72-1.4,1.17-3.01,1.94-4.8,2.15-1.49,.17-3,.03-4.4-.65-.05-.03-.1-.05-.15-.09-.14-.11-.33-.27-.26-.4,.08-.16,.32-.05,.46,.03,1.4,.73,2.92,.73,4.44,.69,.19,0,.36-.05,.53-.14,.22-.11,.44-.18,.7-.14,.1,.01,.21,0,.3-.05,2.73-1.12,4.65-3.01,5.53-5.88,.36-1.19,.68-2.38,.76-3.62,.05-.72-.23-1.37-.38-2.05-.41-1.8-1.16-3.5-1.72-5.25-.33-1.01-.99-1.86-1.65-2.69-.49-.62-1.01-1.23-1.36-1.94-.02-.05-.06-.11-.11-.12-.33-.11-.5-.39-.7-.64-.42-.51-.85-1-1.49-1.24-.08-.03-.21-.05-.17-.17,.03-.13,.18-.12,.26-.1,.38,.07,.71,.24,1.01,.48,.47,.38,.81,.87,1.22,1.31,1.69,1.81,2.9,3.96,4.25,6.01,.73,1.11,1.09,2.42,1.57,3.66,.17,.45,.3,.91,.38,1.39,.03,.17,.05,.34-.02,.53Z"/><path class="cls-4" d="M152.38,28.5c.14-.56,.44-1.03,.79-1.47,.37-.48,.79-.93,1.25-1.33,.24-.21,.24-.21,.51-.05,.14-.19,.12-.46,.33-.63,.17-.14,.28-.34,.54-.18,.09,.05,.11-.03,.15-.09,.89-1.41,2.18-2.24,3.8-2.54,.72-.14,1.43-.37,2.15-.49,1.55-.25,3.08-.2,4.58,.34,2.07,.74,3.77,2.04,5.38,3.46,.81,.71,1.57,1.48,2.36,2.22,.09,.09,.19,.18,.25,.28,.45,.83,1.08,1.54,1.63,2.3,.23,.32,.42,.66,.5,1.05,.02,.12,.06,.24-.04,.38-.2-.13-.33-.32-.45-.5-.3-.45-.62-.89-.88-1.35-.75-1.32-1.78-2.38-2.96-3.32-.87-.7-1.74-1.4-2.59-2.12-1.47-1.24-3.14-2.04-5.03-2.42-.73-.15-1.43-.2-2.14,.01-.89,.27-1.82,.37-2.73,.54-.87,.17-1.59,.57-2.22,1.21-.36,.36-.77,.73-1.2,1.02-.79,.52-1.46,1.14-2.11,1.81-.6,.63-1.15,1.31-1.84,1.86Z"/><path class="cls-4" d="M159.13,17.09c.55,.02,1.07-.16,1.6-.24,.32-.05,.64-.12,.89,.19,.11,.14,.26,.05,.39,.03,.62-.09,1.25-.2,1.87-.29,.1-.02,.22-.04,.31,0,.96,.39,1.99,.45,3,.6,.48,.08,.92,.28,1.35,.5,.14,.07,.28,.14,.43,.09,.48-.15,.9,.05,1.25,.31,.42,.31,.87,.5,1.35,.67,.45,.15,.83,.39,.89,.97-.22-.05-.38-.14-.51-.26-.29-.27-.63-.42-.99-.53-.15-.05-.31-.11-.41-.24-.29-.37-.7-.51-1.13-.5-.64,.02-1.17-.18-1.65-.57-.19-.15-.39-.21-.64-.15-.24,.06-.49,.04-.75-.03-.25-.07-.52-.09-.78-.11-.65-.04-1.3-.08-1.94-.22-.68-.14-1.35,.07-1.99,.31-1.86,.7-3.8,1.06-5.72,1.49-.09,.02-.17,.05-.28,0,.23-.34,.58-.47,.94-.59,.92-.29,1.89-.36,2.84-.55,.52-.1,1.04-.2,1.5-.47,.08-.05,.22-.09,.19-.21-.02-.11-.15-.12-.25-.15-.41-.11-.8,0-1.18,.13-.37,.12-.74,.25-1.1,.38-.14,.05-.28,.07-.48,0l.74-.49c-.75-.13-1.19,.45-1.87,.64,.31-.37,.57-.66,.94-.79,1.13-.4,2.25-.87,3.49-.88,.3,0,.54-.24,.85-.25,.58,0,1.14,.06,1.72,.08,1.74,.06,3.37,.55,4.93,1.28,.09,.04,.28,.05,.24,.19-.05,.18-.21,.06-.32,.05-.58-.07-1.16-.2-1.7-.44-.58-.25-1.18-.35-1.81-.32-.29,.02-.57-.03-.82-.19-.22-.14-.46-.18-.72-.18-.68,.01-1.35,.03-2.02,.14-.63,.1-1.28,.03-1.9,.23-.25,.08-.5,.15-.7,.33Z"/><path class="cls-4" d="M174.95,25.2c-.37-.11-.65-.43-1.09-.47,.53,.89,1.5,1.42,1.8,2.5-.43-.25-.74-.56-1.04-.87-.71-.75-1.31-1.61-2.12-2.26-1.44-1.17-2.99-2.15-4.71-2.89-.96-.41-1.94-.72-2.97-.84-.95-.11-1.92-.09-2.89-.12-.41-.01-.81,.06-1.13,.33-.15,.12-.26,.02-.38-.02-.16-.06-.28-.08-.39,.11-.16,.27-.46,.33-.75,.35-.73,.05-1.43,.27-2.07,.61-.64,.34-1.36,.51-1.98,.87-.07,.04-.18,.05-.27,.06-.49,.02-.81,.28-1,.72-.03,.08-.05,.2-.18,.14-.11-.05-.03-.14-.01-.21,.08-.35,.31-.59,.59-.78,.79-.55,1.65-.95,2.6-1.14,.35-.07,.68-.18,.98-.4,.42-.31,.86-.48,1.38-.26,.12,.05,.2,.02,.26-.08,.14-.22,.35-.27,.59-.28,.41-.01,.78-.18,1.17-.28,.84-.21,1.68-.2,2.53-.14,1.16,.08,2.31,.19,3.43,.54,.65,.2,1.25,.53,1.82,.89,1.11,.69,2.27,1.31,3.33,2.08,.35,.25,.75,.39,1.14,.55,.39,.16,.78,.35,1.09,.65,.18,.17,.33,.35,.26,.64Z"/><path class="cls-4" d="M156.76,22.55c1.46-1.02,3.13-1.44,4.85-1.73,.35-.06,.71-.08,1.06-.14,.74-.14,1.43,.14,2.15,.17,.05,0,.09,.02,.14,.02,1.05-.07,1.95,.39,2.88,.79,2.8,1.21,5.04,3.12,6.97,5.43,.27,.33,.54,.66,.92,.88,.17,.1,.1,.18,0,.25-.29,.21-.29,.21-.17,.55-.11,.05-.14-.05-.19-.1-.12-.14-.25-.27-.35-.43-1.15-1.84-2.83-3.14-4.51-4.44-.87-.67-1.79-1.26-2.78-1.71-1.21-.55-2.5-.9-3.86-.9-.9,0-1.78,.12-2.67,.26-1,.15-1.95,.49-2.94,.67-.32,.06-.57,.22-.78,.46-.23,.26-.46,.51-.75,.71-.1,.07-.2,.19-.33,.08-.13-.12-.06-.25,0-.38,.04-.08,.09-.16,.14-.24,.02-.12,.09-.19,.21-.21Z"/><path class="cls-4" d="M156.49,20.54c.41-.3,.8-.41,1.17-.53,.93-.29,1.88-.55,2.84-.68,.52-.07,.98-.2,1.41-.46,.29-.17,.59-.15,.91-.1,.27,.04,.56,.14,.82,.1,1.05-.17,2.03,.27,3.06,.34,.72,.05,1.35,.49,2.03,.72,.65,.23,1.21,.62,1.81,.96,.94,.53,1.69,1.39,2.82,1.59,.04,0,.1,.03,.12,.06,.22,.39,.6,.57,.98,.76,.07,.03,.12,.11,.17,.17,.09,.14,.19,.32,.09,.44-.13,.15-.25-.06-.37-.11-.13-.06-.26-.15-.37-.25-1.11-.94-2.46-1.46-3.73-2.12-.52-.27-1-.6-1.5-.9-1.1-.67-2.29-.95-3.56-1.03-.51-.03-1.02-.09-1.52-.14-1.19-.12-2.27,.22-3.37,.48-.94,.21-1.86,.5-2.81,.67-.3,.05-.59,.05-.98,.04Z"/><path class="cls-4" d="M160.34,30.06c.23,.02,.1,.15,.07,.24-.17,.47-.42,.9-.71,1.29-.68,.92-.99,1.98-1.29,3.05-.07,.27-.01,.55-.02,.82,0,.22-.02,.44-.1,.64-.04,.1-.12,.17-.24,.15-.12-.02-.14-.11-.14-.21,0-.26,0-.52,0-.79-.21,.02-.26,.19-.31,.35-.14,.41-.13,.84-.06,1.26,.13,.84,.13,1.67,.03,2.5-.06,.46,0,.91,.08,1.36,.22,1.37,.62,2.67,1.45,3.81,.28,.38,.5,.82,.58,1.34-.43-.03-.69-.28-.9-.58-.37-.54-.61-1.15-.83-1.77-.41-1.17-.69-2.37-.88-3.6-.08-.53,0-1.05,.06-1.58,.07-.65,.09-1.3,0-1.95-.09-.64,.24-1.2,.41-1.79,.02-.08,.1-.2,.2-.16,.3,.13,.32-.11,.38-.27,.41-1.06,.72-2.15,1.33-3.12,.2-.32,.41-.63,.62-.95,.08-.07,.19,0,.28-.06Z"/><path class="cls-4" d="M164.05,18.26c-.45-.07-.93-.01-1.36,.3-.07,.05-.17,.08-.26,.09-1,.05-1.96,.39-2.94,.54-.3,.04-.59,.05-.89,.05-.22,0-.47-.07-.57,.23-.03,.07-.13,.09-.21,.09-.24-.02-.45,.04-.65,.18-.14,.1-.35,.12-.44,0-.09-.12,.06-.27,.17-.37,.19-.18,.42-.15,.65-.09,.1,.03,.2,.08,.28-.03,.16-.24,.43-.21,.66-.29,.91-.31,1.87-.31,2.79-.59,2.34-.71,4.67-.6,6.95,.29,.42,.17,.85,.28,1.31,.25,.21-.01,.35,.08,.49,.21,.22,.2,.45,.4,.78,.38,.15,0,.21,.13,.29,.22,.21,.27,.45,.47,.77,.6,.78,.32,1.24,1.02,1.79,1.6,.05,.05,.1,.13,.06,.19-.06,.08-.14,.03-.22,0-.26-.1-.48-.26-.7-.44-.35-.3-.7-.6-1.05-.89-.64-.52-1.43-.7-2.19-.97-.29-.1-.55-.23-.78-.43-.45-.39-1.03-.53-1.58-.65-1.01-.23-2.04-.47-3.15-.45Z"/><path class="cls-4" d="M158.56,28.97c-.51,.67-1.03,1.3-1.49,1.97-.6,.88-1.14,1.8-1.48,2.82-.02,.05-.04,.11-.04,.17-.04,.58-.14,1.12-.61,1.54-.12,.11-.19,.31-.09,.51,.06,.12,0,.25-.05,.37-.4,1.1-.58,2.26-.84,3.39-.02,.1,0,.18,.03,.3,.17-.16,.17-.38,.26-.55,.05-.08,0-.28,.18-.24,.17,.04,.28,.16,.24,.36-.04,.26-.13,.51-.3,.72-.32,.38-.5,.79-.41,1.29,0,.01,0,.03,0,.03-.31,.54-.14,1.2-.47,1.73-.04,.07-.05,.2-.18,.17-.12-.03-.09-.14-.08-.23,.03-.64,.07-1.28,.27-1.9,.18-.56,.19-1.15,.18-1.74,0-.46,.08-.91,.23-1.35,.17-.47,.25-.95,.25-1.45,0-.08-.03-.19,.06-.21,.34-.1,.28-.35,.26-.6,0-.18,.04-.36,.1-.54,.3-.88,.66-1.73,.89-2.64,.09-.36,.37-.6,.54-.92,.17-.32,.37-.61,.55-.93,.36-.65,.78-1.27,1.29-1.82,.17-.19,.37-.33,.7-.26Z"/><path class="cls-4" d="M163.26,15.19c.09,.31,.03,.4-.3,.38-.22-.01-.43-.07-.64-.11-.27-.05-.54-.04-.74,.16-.69,.69-1.48,.58-2.33,.31,.11-.2,.28-.25,.43-.28,.35-.08,.7-.14,1.05-.18,.39-.04,.74-.07,.92-.54,.12-.32,.34-.29,.57,.02,.09,.13,.19,.24,.34,.04,.12-.16,.31-.19,.5-.16,.16,.03,.32,.06,.47,.12,.54,.21,1.08,.3,1.68,.26,.61-.05,1.18,.26,1.77,.38,.49,.1,.93,.33,1.37,.55,.85,.44,1.82,.66,2.58,1.29,.28,.23,.58,.43,.81,.85-.77-.37-1.46-.7-2.14-1.03-.22-.11-.44-.2-.68-.25-.12-.03-.28-.04-.35-.12-.43-.43-1.02-.53-1.53-.78-.17-.08-.32-.17-.52-.07-.11,.06-.23-.01-.33-.05-.45-.18-.91-.3-1.4-.31-.37,0-.69-.14-1.02-.29-.16-.08-.31-.18-.51-.2Z"/><path class="cls-4" d="M155.78,42.91c.33,.4,.31,.84,.33,1.27,.03,.56-.05,1.12,.2,1.66,.25,.53,.55,1.01,1.05,1.33,.18,.12,.34,.27,.4,.52-.48-.08-.81-.36-1.1-.71-.29-.35-.48-.76-.72-1.13-.07-.11-.14-.27-.3-.25-.16,.02-.17,.19-.21,.32-.08,.27-.17,.55-.22,.83-.04,.2,.06,.31,.25,.18,.34-.23,.58-.06,.77,.19,.27,.35,.62,.57,1.04,.68,.68,.18,1.26,.55,1.79,.99,.42,.35,.88,.62,1.41,.77,.22,.07,.44,.11,.67,.09,.55-.03,1.09,.11,1.63,.21,.14,.02,.25,.12,.31,.25,.07,.13,.14,.3,.05,.42-.09,.13-.24,0-.34-.03-1-.31-2-.59-2.99-.94-.66-.23-1.26-.54-1.81-.97,0,0-.02-.01-.03-.02-.97-.71-1.95-1.42-3.33-1.07,.54-1.54,1.14-3,1.15-4.6Z"/><path class="cls-4" d="M152.5,39.51c-.23-.23-.23-.47-.12-.7,.7-1.46,1.15-3.02,1.67-4.54,.09-.27,.2-.55,.36-.78,.63-.89,1.03-1.89,1.5-2.86,.63-1.32,1.66-2.3,2.82-3.14,.26-.19,.56-.32,.89-.32,.07,0,.15-.02,.19,.05,.04,.08-.03,.13-.08,.17-.1,.09-.21,.19-.33,.24-.83,.34-1.42,.97-1.96,1.64-.91,1.14-1.65,2.4-2.3,3.7-.19,.37-.33,.76-.44,1.15-.14,.51-.28,1-.66,1.41-.23,.24-.35,.56-.27,.92,.04,.16-.02,.33-.11,.46-.49,.73-.75,1.57-1.05,2.38-.02,.06-.06,.12-.1,.22Z"/><path class="cls-4" d="M165.52,50.21c-.68-.01-1.28-.16-1.89-.26-.06-.01-.13-.05-.18-.1-.13-.11-.21-.27-.14-.43,.07-.17,.24-.1,.36-.08,.63,.14,1.25,.3,1.88,.43,.45,.09,.91,.07,1.37,0,1.19-.19,2.34-.55,3.5-.85,.34-.09,.62-.29,.89-.51,.74-.65,1.48-1.3,2.22-1.95,.41-.36,.65-.85,.93-1.32,.06-.11,.09-.29,.29-.19,.16,.08,.14,.2,.1,.35-.19,.7-.65,1.21-1.17,1.67-.92,.81-1.89,1.57-2.91,2.25-.69,.46-1.52,.58-2.32,.7-.99,.16-1.98,.23-2.93,.29Z"/><path class="cls-4" d="M161.26,49.44c-1.94-.88-3.71-1.9-4.54-3.99-.12-.3-.24-.6-.26-.92-.03-.8-.24-1.58-.29-2.39-.04-.68-.02-1.36,.14-2.02,.15-.62,.19-1.24,.22-1.87,.02-.53,.07-1.04,.3-1.57,.24,.37,.28,.74,.1,1.07-.18,.33-.21,.65-.16,.99,.09,.79-.09,1.55-.13,2.33-.06,1.36-.02,2.7,.37,4.02,.15,.51,.42,.97,.66,1.43,.22,.42,.7,.61,1.05,.92,.73,.63,1.49,1.23,2.39,1.6,.15,.06,.22,.16,.15,.39Z"/><path class="cls-4" d="M159.67,25.73c-.09,.39-.32,.54-.6,.59-.53,.09-.97,.34-1.34,.72-.1,.1-.23,.21-.37,.25-.59,.16-.95,.63-1.4,.97-.08,.06-.14,.12-.12,.23,.03,.14-.05,.21-.17,.26-.27,.11-.36,.33-.38,.6-.02,.37-.18,.66-.53,.81-.68,.3-1.1,.84-1.42,1.48-.31,.61-.62,1.23-1,1.8-.1,.14-.2,.28-.31,.41-.05,.06-.1,.15-.2,.1-.09-.05-.06-.14-.03-.21,.09-.24,.09-.53,.4-.64,.08-.03,.11-.14,.13-.23,.09-.4,.3-.74,.55-1.06,.09-.12,.19-.24,.22-.38,.21-.81,.75-1.41,1.31-1.98,.54-.55,1.03-1.14,1.54-1.72,.98-1.1,2.26-1.63,3.72-2.01Z"/><path class="cls-4" d="M162.72,49.63c-.13-.06-.24-.09-.31-.16-.57-.64-1.43-.85-2.08-1.37-.45-.36-.93-.67-1.35-1.06-1.4-1.3-1.94-2.98-2.13-4.82-.02-.2,.03-.41,.05-.62,0-.07,.02-.16,.09-.16,.05,0,.12,.05,.17,.1,.18,.2,.19,.46,.2,.71,.02,.35,0,.71,.02,1.07,.02,.23,.06,.47,.16,.67,.8,1.55,1.68,3.03,3.27,3.91,.5,.28,1.02,.53,1.46,.9,.34,.29,.42,.43,.46,.81Z"/><path class="cls-4" d="M174.01,48.53c-.06,.23-.2,.35-.33,.48-.58,.58-1.21,1.1-1.97,1.43-.38,.16-.68,.56-1.18,.43-.08-.02-.23,.13-.32,.24-.22,.25-.5,.38-.83,.44-.36,.06-.72,.14-1.08,.24-.5,.13-1.02,.26-1.52,.16-.4-.08-.74,.07-1.11,.12-.14,.02-.27,.04-.41,.06-.12,.01-.24,.01-.24-.16,0-.18,.13-.12,.22-.13,1.35-.1,2.69-.31,4.01-.63,.34-.08,.69-.15,.91-.5,.09-.15,.31-.14,.48-.15,.38-.01,.68-.19,.96-.41,.49-.4,.97-.81,1.47-1.19,.26-.2,.54-.39,.93-.4Z"/><path class="cls-4" d="M163.18,52.2c-.32,.21-.62,.18-.89,.08-.69-.25-1.42-.26-2.12-.46-.68-.19-1.41-.2-2.06-.5-.21-.1-.44-.16-.67-.13-.51,.06-.94-.15-1.4-.31-.11-.04-.26-.09-.25-.2,.01-.14,.18-.09,.29-.1,.81-.05,1.6,.04,2.37,.35,.72,.28,1.48,.35,2.24,.46,.41,.06,.79,.24,1.18,.37,.42,.14,.85,.29,1.31,.45Z"/><path class="cls-4" d="M165.7,51.19c-.69,0-1.16-.14-1.62-.25-.15-.04-.3-.12-.42-.23-.08-.08-.19-.16-.13-.29,.06-.13,.19-.11,.3-.07,1.17,.43,2.35,.48,3.55,.15,.24-.07,.5-.06,.75-.04,.34,.02,.65-.1,.95-.26,.28-.15,.56-.27,.89-.23,.09,0,.2,0,.23,.1,.03,.1-.07,.16-.14,.22-.19,.16-.41,.25-.65,.3-1.29,.3-2.59,.46-3.7,.59Z"/><path class="cls-4" d="M162.21,14.46c.53-.37,1.12-.42,1.71-.3,.31,.06,.6,.21,.9,.32,.06,.02,.11,.07,.19,.06,1.19-.07,2.28,.35,3.34,.79,.73,.3,1.49,.62,2.08,1.19,.07,.06,.23,.1,.15,.22-.1,.15-.21,0-.29-.05-1.1-.59-2.18-1.22-3.38-1.61-.33-.11-.66-.21-1-.2-.91,.03-1.8-.14-2.69-.32-.34-.07-.68,0-1.01-.11Z"/><path class="cls-4" d="M163.18,51.55c-.47-.15-.92-.29-1.37-.43-.49-.15-.99-.28-1.51-.28-.33,0-.62-.11-.9-.29-.43-.27-.87-.5-1.41-.47-.13,0-.34-.02-.32-.22,.01-.15,.14-.26,.34-.27,.43-.02,.81,.12,1.18,.31,.79,.41,1.59,.75,2.51,.73,.24,0,.49,.02,.71,.08,.5,.15,.73,.33,.78,.82Z"/><path class="cls-4" d="M162.16,53.14c-1.35-.06-2.68-.23-3.99-.52-.2-.04-.4-.12-.59-.19-.12-.04-.25-.11-.2-.27,.04-.14,.17-.15,.28-.14,.4,.05,.8,.12,1.18,.25,.43,.14,.88,.14,1.31,.22,.85,.16,1.71,.14,2.55,.29,.16,.03,.45,.04,.42,.25-.02,.15-.3,.08-.47,.09-.16,.01-.32,0-.48,0Z"/><path class="cls-4" d="M171.56,51.22c-.25,.48-.6,.67-.98,.8-1.09,.39-2.22,.66-3.38,.76-.51,.04-1.03,.09-1.55,.07-.18,0-.37,.01-.55-.1,.24-.26,.56-.25,.86-.24,.63,.03,1.27,.05,1.88-.14,.83-.26,1.68-.46,2.52-.66,.38-.09,.73-.3,1.19-.5Z"/><path class="cls-4" d="M170.39,50.12c.13-.33,.33-.52,.56-.66,.97-.59,1.82-1.32,2.72-2,.06-.05,.13-.1,.2-.13,.11-.06,.24-.21,.36-.07,.12,.14,.02,.28-.07,.4-.2,.27-.45,.49-.72,.69-.87,.67-1.78,1.25-2.79,1.69-.06,.03-.13,.04-.26,.08Z"/><path class="cls-4" d="M152.94,26.62c.15-.43,.29-.8,.42-1.17,.04-.1,.14-.15,.23-.19,.12-.06,.24-.12,.29-.24,.12-.32,.26-.51,.65-.34,.16,.07,.14-.14,.16-.23,.05-.24,.08-.45,.42-.42,.17,.01,.3-.13,.41-.28,.07-.1,.16-.2,.26-.27,.12-.08,.27-.1,.37,.04,.09,.12,.03,.24-.07,.33-.54,.48-1.06,.98-1.64,1.41-.41,.31-.79,.61-1.1,1.02-.09,.11-.18,.23-.4,.32Z"/><path class="cls-4" d="M154.72,30.55c-.16,.46-.34,.91-.61,1.31-.49,.74-.78,1.58-1.22,2.34-.13,.23-.27,.46-.46,.64-.06,.05-.12,.12-.21,.05-.07-.05-.1-.13-.08-.21,.04-.12,.07-.26,.15-.34,.38-.38,.52-.89,.68-1.37,.15-.45,.47-.78,.7-1.17,.11-.18,.1-.45,.44-.46,.15,0,.17-.29,.23-.47,.06-.17,.09-.37,.37-.31Z"/><path class="cls-4" d="M160.48,53.87c.23-.24,.53-.23,.8-.15,.53,.17,1.04,.12,1.56,.01,.23-.05,.46-.08,.68,0,.12,.04,.2-.01,.29-.07,.41-.24,.83-.21,1.26-.05-.73,.58-3.74,.74-4.59,.25Z"/><path class="cls-4" d="M159.65,46.11c.33,.07,.61,.16,.85,.34,.46,.33,.87,.71,1.28,1.09,.07,.06,.12,.14,.17,.21,.09,.13,.22,.32,.11,.43-.12,.13-.26-.05-.37-.12-.63-.39-1.19-.86-1.69-1.39-.14-.15-.28-.3-.35-.56Z"/><path class="cls-4" d="M155.06,48.32c.02-.11,0-.22,.18-.23,.77-.05,1.46,.21,2.12,.57,.05,.03,.09,.07,.12,.12,.13,.17,.29,.42,.19,.55-.13,.15-.34-.06-.48-.17-.5-.4-1.02-.68-1.7-.52-.2,.05-.42-.02-.43-.31Z"/><path class="cls-4" d="M153.87,37.21c-.2,1.52-.6,2.92-.99,4.34-.17-.22-.15-.45-.1-.68,.21-1.1,.58-2.16,.73-3.28,.02-.18,.18-.25,.36-.39Z"/><path class="cls-4" d="M154.97,49.01c.63,.42,1.36,.35,2.04,.5,.09,.02,.17,.06,.25,.1,.08,.05,.18,.1,.12,.24-.05,.11-.11,.18-.23,.16-.58-.11-1.19-.1-1.72-.4-.24-.13-.38-.33-.46-.61Z"/><path class="cls-4" d="M153.36,24.51c.33-.62,.82-1.01,1.52-1.07,.19-.02,.17-.16,.2-.27,.05-.17,.11-.33,.3-.39,.08-.02,.16,.06,.18,.13,.07,.17-.05,.3-.14,.43-.15,.21-.35,.36-.59,.45-.39,.15-.75,.34-1.06,.62-.1,.09-.22,.17-.41,.1Z"/><path class="cls-4" d="M171.83,51.88c-.17,.31-.44,.48-.71,.64-.49,.28-1.01,.47-1.55,.65-.09,.03-.18,.08-.24-.03-.06-.12,.01-.2,.11-.25,.78-.36,1.57-.73,2.39-1Z"/><path class="cls-4" d="M175.79,32.39c.56,.53,.93,1.15,.94,1.95-.51-.45-.84-1.01-1.02-1.66-.02-.11-.11-.23,.08-.28Z"/><path class="cls-4" d="M165.74,54.46c-.91,.28-1.83,.42-2.79,.35,.89-.44,1.83-.41,2.79-.35Z"/><path class="cls-4" d="M159.55,15.43c.45-.56,.99-.85,1.66-.9-.12,.5-.81,.88-1.66,.9Z"/><path class="cls-4" d="M157.68,24.32c.33-.44,.69-.83,1.24-.98,.11-.03,.24-.1,.31,.02,.06,.11-.08,.18-.15,.24-.41,.35-.87,.6-1.4,.72Z"/><path class="cls-4" d="M154.35,21.93c.09-.31,.25-.49,.54-.51,.24-.02,.35-.13,.42-.36,.1-.34,.25-.38,.47-.19,.08,.07,.09,.13,.03,.2-.37,.46-.85,.75-1.46,.85Z"/><path class="cls-4" d="M168.83,53.17c-.35,.35-.97,.47-1.44,.28,.31-.39,.98-.52,1.44-.28Z"/><path class="cls-4" d="M169.24,53.85c-.45,.36-1.09,.52-1.64,.42,.23-.33,.84-.5,1.64-.42Z"/><path class="cls-4" d="M156.45,22.67c-.11,.07-.21,.14-.32,.2-.11,.05-.24,.15-.33,0-.08-.13-.04-.27,.07-.37,.25-.23,.56-.27,.89-.29,.07,.13-.07,.18-.09,.27-.03,.11-.1,.18-.22,.21Z"/><path class="cls-4" d="M166.76,53.44c-.35,.27-.69,.37-1.07,.36-.08,0-.21,0-.24-.09-.03-.11,.08-.18,.17-.23,.35-.2,.72-.16,1.13-.04Z"/><path class="cls-4" d="M174.76,46.19c.06-.56,.44-.9,.63-1.33,.02-.04,.07-.05,.12-.03,.04,.02,.08,.06,.06,.11-.14,.48-.25,.98-.81,1.25Z"/><path class="cls-4" d="M152.13,37.84c-.2-.54,.38-.94,.14-1.45,.49,.27,.44,.66-.14,1.45Z"/><path class="cls-4" d="M164.25,52.87c-.24-.05-.46-.09-.68-.13-.14-.03-.24-.11-.21-.26,.03-.18,.18-.15,.3-.11,.22,.07,.43,.15,.65,.22,.1,.03,.17,.09,.16,.19-.02,.15-.15,.05-.21,.09Z"/><path class="cls-4" d="M176.64,39.83c-.06-.41-.11-.79-.16-1.16,0-.03,0-.07,.01-.1,.46,.2,.53,.72,.15,1.26Z"/><path class="cls-4" d="M152.39,40.66c-.31-.24-.42-.62-.3-.9,.03-.08,.08-.14,.17-.14,.13,0,.14,.09,.16,.18,.01,.06,.02,.11,.02,.17-.01,.22-.03,.43-.05,.69Z"/><path class="cls-4" d="M163.6,51.31c.32,.14,.6,.27,.88,.4,.05,.02,.12,.04,.11,.11-.01,.07-.05,.12-.13,.15-.27,.09-.82-.29-.86-.65Z"/><path class="cls-4" d="M153.12,44.49c-.24-.15-.26-.37-.28-.58,0-.11-.09-.3,.16-.28,.17,.01,.31,.05,.28,.28-.02,.19-.08,.37-.16,.58Z"/><path class="cls-4" d="M167.02,54.28c-.13,.26-.33,.36-.57,.37-.13,0-.25-.05-.26-.21,0-.14,.1-.19,.22-.22,.2-.04,.38,0,.61,.07Z"/><path class="cls-4" d="M152.71,42.93c-.25-.19-.27-.44-.22-.71,.01-.07,0-.21,.15-.16,.1,.04,.23,.03,.23,.2,0,.23-.06,.45-.17,.67Z"/><path class="cls-4" d="M172.65,50.56c-.21,.4-.47,.57-.9,.58,.21-.35,.48-.52,.9-.58Z"/><path class="cls-4" d="M158.12,16.46c.07-.29,.24-.47,.53-.52,.07-.01,.15,0,.18,.06,.01,.04-.02,.11-.06,.14-.16,.2-.35,.36-.65,.31Z"/><path class="cls-4" d="M156.21,19.57c.1,.07,.25,.1,.25,.22,0,.14-.11,.23-.26,.21-.1-.01-.28,.02-.25-.14,.02-.12,.14-.23,.26-.3Z"/><path class="cls-4" d="M174.7,46.88c0,.09-.02,.18-.09,.25-.07,.08-.14,.1-.23,.02-.09-.08-.08-.15,0-.22,.08-.07,.15-.14,.23-.2,.13,0,.1,.08,.08,.15Z"/><path class="cls-4" d="M175.79,32.39c-.12,.07-.04,.19-.08,.28-.1-.27-.09-.3,.08-.28Z"/><path class="cls-4" d="M174.7,46.88c-.02-.06-.01-.12-.08-.15,.02-.05,.08-.12,.11-.09,.06,.07,.03,.16-.03,.24Z"/><image class="cls-5" width="1821" height="1188" transform="scale(.1 .05)" xlink:href="../../../Content/foil_colour.png"/></g></g></g></svg>