<?xml version="1.0" encoding="UTF-8"?><svg xmlns="http://www.w3.org/2000/svg" width="197.94" height="71.05" xmlns:xlink="http://www.w3.org/1999/xlink" viewBox="0 0 197.94 71.05"><defs><style>.cls-1{mix-blend-mode:difference;}.cls-2{fill:#e0a20f;}.cls-3{isolation:isolate;}.cls-4{fill:#0a0f0d;}.cls-5{mix-blend-mode:screen;opacity:.5;}</style></defs><g class="cls-3"><g id="Layer_2"><g id="Layer_1-2"><rect class="cls-2" x="8.74" y="5.95" width="189.19" height="65.11"/><g class="cls-1"><rect class="cls-4" x="1" y="1" width="187.19" height="63.11"/><path class="cls-2" d="M187.19,2V63.11H2V2H187.19m2-2H0V65.11H189.19V0h0Z"/></g><g><path class="cls-4" d="M31.62,34.41c0,6.69-4.33,7.77-8.47,7.77h-5.72v-15.51h5.72c4.14,0,8.47,1.08,8.47,7.75Zm-8.47,4.66c2.75,0,4.93-.22,4.93-4.66s-2.18-4.64-4.93-4.64h-2.18v9.31h2.18Z"/><path class="cls-4" d="M41.06,26.44c4.91,0,7.9,3.45,7.9,7.97s-2.99,7.99-7.9,7.99-7.92-3.45-7.92-7.99,2.99-7.97,7.92-7.97Zm0,12.85c2.93,0,4.38-1.89,4.38-4.88s-1.45-4.86-4.38-4.86-4.38,1.89-4.38,4.86,1.45,4.88,4.38,4.88Z"/><path class="cls-4" d="M58.46,26.44c4.33,0,7.2,2.38,7.66,6.21h-3.52c-.35-2.05-1.98-3.1-4.09-3.1-2.68,0-4.47,1.67-4.47,4.86s1.78,4.88,4.47,4.88c2.11,0,3.74-1.08,4.09-3.12h3.52c-.46,3.85-3.32,6.23-7.66,6.23-4.93,0-7.96-3.45-7.96-7.99s3.04-7.97,7.96-7.97Z"/><path class="cls-4" d="M67.88,26.66h3.54v8.16c0,2.77,.22,4.47,3.45,4.47s3.5-1.69,3.5-4.47v-8.16h3.54v9.75c0,3.87-2.44,5.98-7.04,5.98s-7-2.11-7-5.98v-9.75Z"/><path class="cls-4" d="M83.89,42.17v-15.51h6.95l2.24,14.63h.9l2.24-14.63h6.95v15.51h-3.54v-12.41l.66-2.22h-.88l-2.46,14.63h-6.84l-2.46-14.63h-.9l.68,2.22v12.41h-3.54Z"/><path class="cls-4" d="M105.39,42.17v-15.51h11.09v3.1h-7.55v3.1h6.45v3.08h-6.45v3.12h7.55v3.1h-11.09Z"/><path class="cls-4" d="M118.43,42.17v-15.51h6.95l4.66,14.63h.88l-.66-2.22v-12.41h3.54v15.51h-6.97l-4.64-14.63h-.9l.68,2.22v12.41h-3.54Z"/><path class="cls-4" d="M149.01,26.66v3.1h-5.06v12.41h-3.52v-12.41h-5.08v-3.1h13.66Z"/></g><g><path d="M177.41,25.67c-1.71-1.6-3.4-3.21-5.1-4.82-.64-.61-1.39-.91-2.27-.9-3.31,0-6.63,0-9.94,0-.34,0-.68,.03-1,.14-1.33,.44-2.14,1.57-2.15,3.01,0,3.67,0,7.33,0,11,0,3.61,0,7.22,0,10.82,0,2.03,1.27,3.31,3.3,3.31,4.99,0,9.98,0,14.97,0,2,0,3.29-1.28,3.29-3.27,0-5.57,0-11.13,0-16.7,0-1.03-.35-1.88-1.11-2.59Zm-5.87-3.27c1.48,1.4,2.91,2.75,4.41,4.17-1.42,0-2.73,0-4.04,0-.26,0-.37-.13-.37-.38,0-1.23,0-2.47,0-3.79Zm5.3,22.73c0,.88-.55,1.43-1.43,1.43-5.11,0-10.22,0-15.33,0-.9,0-1.44-.55-1.44-1.46,0-3.67,0-7.33,0-11,0-3.61,.02-7.22-.02-10.82-.01-.93,.52-1.68,1.68-1.66,3.05,.05,6.1,.03,9.14,0,.38,0,.45,.11,.45,.46-.02,1.34-.01,2.68,0,4.02,0,1.33,.83,2.15,2.14,2.16,1.49,0,2.97,0,4.46,0,.28,0,.36,.07,.36,.36,0,5.51,0,11.02,0,16.52Z"/><path d="M167.58,30.99c1.97,0,3.95,0,5.92,0,.56,0,.91,.27,.96,.71,.06,.56-.31,.96-.93,.96-.74,0-1.47,0-2.21,0-3.21,0-6.42,0-9.63,0-.77,0-1.22-.58-.93-1.19,.18-.38,.51-.48,.91-.48,1.97,0,3.95,0,5.92,0Z"/><path d="M167.56,35.41c1.99,0,3.97,0,5.96,0,.59,0,.93,.31,.94,.82,0,.43-.26,.74-.7,.84-.06,.01-.12,.02-.18,.02-4,0-8.01,0-12.01,0-.52,0-.9-.37-.91-.83,0-.49,.37-.84,.93-.84,1.99,0,3.97,0,5.96,0Z"/><path d="M163.54,39.83c.62,0,1.24,0,1.85,0,.58,0,.94,.32,.94,.82,0,.49-.36,.85-.92,.85-1.28,0-2.56,.01-3.84,0-.52,0-.9-.37-.9-.83,0-.49,.37-.83,.93-.84,.65,0,1.29,0,1.94,0Z"/></g><image class="cls-5" width="1821" height="1188" transform="translate(0 .03) scale(.1 .05)" xlink:href="../../../Content/foil_colour.png"/></g></g></g></svg>