<?xml version="1.0" encoding="UTF-8"?><svg xmlns="http://www.w3.org/2000/svg" width="197.94" height="70.85" xmlns:xlink="http://www.w3.org/1999/xlink" viewBox="0 0 197.94 70.85"><defs><style>.cls-1{mix-blend-mode:difference;}.cls-2{fill:#e0a20f;}.cls-3{isolation:isolate;}.cls-4{fill:#0a0f0d;}.cls-5{mix-blend-mode:screen;opacity:.5;}</style></defs><g class="cls-3"><g id="Layer_2"><g id="Layer_1-2"><rect class="cls-2" x="8.74" y="5.75" width="189.19" height="65.11"/><g class="cls-1"><rect class="cls-4" x="1" y="1.14" width="187.19" height="63.11"/><path class="cls-2" d="M187.19,2.14V63.25H2V2.14H187.19m2-2H0V65.25H189.19V.14h0Z"/></g><g><path class="cls-4" d="M38.62,24.87h4.89l5.55,19.95h1.23l5.58-19.95h4.89l-6.12,21.15h-9.93l-6.09-21.15Z"/><path class="cls-4" d="M77.29,29.1h-4.8v12.69h4.8v4.23h-14.43v-4.23h4.8v-12.69h-4.8v-4.23h14.43v4.23Z"/><path class="cls-4" d="M79.99,46.02V24.87h15.12v4.23h-10.29v4.23h8.79v4.2h-8.79v4.26h10.29v4.23h-15.12Z"/><path class="cls-4" d="M96.88,24.87h4.68l3.33,19.95h1.2l2.61-19.95h10.26l2.58,19.95h1.2l3.36-19.95h4.68l-3.63,21.15h-10.02l-2.7-19.95h-1.2l-2.73,19.95h-9.99l-3.63-21.15Z"/></g><g><path d="M160.34,34.6c-.31,.84-.59,1.58-.85,2.32-.09,.26-.21,.47-.51,.48-.3,0-.44-.2-.53-.46-.42-1.17-.85-2.34-1.28-3.5-.14-.38-.03-.66,.27-.76,.28-.1,.52,.05,.66,.42,.28,.76,.56,1.53,.86,2.35,.29-.81,.57-1.55,.84-2.3,.09-.27,.21-.5,.54-.5,.32,0,.44,.24,.53,.51,.26,.75,.54,1.49,.83,2.29,.24-.65,.46-1.26,.68-1.86,.08-.21,.14-.42,.23-.62,.12-.27,.37-.38,.62-.29,.27,.1,.4,.35,.3,.64-.44,1.24-.9,2.48-1.35,3.72-.08,.23-.25,.37-.5,.36-.25,0-.39-.17-.48-.39-.28-.77-.56-1.54-.87-2.41Z"/><path d="M166.34,35.45c.3-.83,.59-1.6,.87-2.38,.09-.24,.22-.41,.49-.42,.29,0,.44,.18,.52,.43,.02,.07,.05,.15,.08,.22,.25,.69,.5,1.38,.76,2.09,.14-.12,.15-.28,.2-.42,.24-.63,.46-1.26,.69-1.89,.13-.34,.38-.49,.65-.4,.3,.1,.41,.37,.28,.73-.43,1.19-.86,2.38-1.29,3.57-.09,.25-.23,.44-.52,.43-.29,0-.42-.2-.51-.45-.27-.76-.55-1.53-.85-2.35-.22,.59-.41,1.12-.61,1.66-.09,.26-.18,.52-.28,.78-.08,.23-.24,.37-.49,.37-.23,0-.39-.14-.47-.36-.45-1.23-.9-2.46-1.34-3.69-.11-.32,0-.57,.29-.68,.27-.1,.52,.03,.64,.35,.29,.78,.58,1.57,.89,2.42Z"/><path d="M152.94,34.66c-.28,.77-.56,1.53-.83,2.28-.09,.26-.23,.46-.53,.46-.29,0-.42-.21-.5-.45-.42-1.17-.85-2.34-1.27-3.51-.14-.39-.05-.66,.26-.77,.29-.11,.53,.05,.68,.44,.24,.65,.48,1.3,.72,1.95,.04,.1,.04,.21,.16,.31,.28-.75,.55-1.49,.81-2.23,.09-.27,.21-.5,.53-.5,.32,0,.44,.24,.53,.5,.27,.75,.54,1.49,.83,2.3,.29-.79,.56-1.53,.83-2.26,.03-.08,.05-.17,.09-.25,.13-.24,.33-.36,.6-.27,.26,.08,.4,.33,.31,.6-.13,.41-.28,.81-.43,1.21-.3,.83-.61,1.65-.9,2.48-.09,.25-.24,.43-.52,.43-.26,0-.4-.18-.49-.42-.25-.71-.51-1.41-.77-2.11-.03-.07-.03-.15-.12-.21Z"/><path d="M175.12,30.8c-.22-.04-.31-.14-.38-.35-.66-1.98-1.67-3.76-3.08-5.3-2.8-3.08-6.27-4.78-10.44-5.04-2.76-.17-5.36,.4-7.82,1.65-.34,.17-.45,.44-.31,.71,.14,.27,.41,.33,.76,.16,.72-.37,1.47-.68,2.25-.92,.46-.15,.94-.27,1.42-.36,.48-.09,.96-.18,1.46-.21-.02,.05-.02,.07-.04,.08-1.33,1.36-2.45,2.87-3.41,4.5-.1,.16-.22,.18-.38,.18-1.74,0-3.47,0-5.21,0-.06,0-.15,.05-.2-.07,.05-.06,.11-.12,.17-.19,.57-.63,1.2-1.19,1.87-1.71,.26-.21,.3-.48,.12-.71-.17-.22-.46-.24-.72-.05-.03,.02-.05,.04-.08,.06-2.42,1.9-4.14,4.3-5.13,7.21-.08,.22-.17,.32-.4,.37-.88,.17-1.46,.7-1.78,1.54-.04,.1-.01,.22-.12,.29v5.21s.06,.06,.07,.1c.28,.98,.92,1.57,1.93,1.75,.21,.04,.24,.16,.29,.32,3,9.04,13.53,13.11,21.82,8.45,.46-.26,.59-.51,.41-.81-.18-.29-.42-.3-.88-.05-1.73,.97-3.59,1.55-5.59,1.75,.04-.06,.05-.1,.08-.13,1.32-1.35,2.43-2.85,3.38-4.48,.1-.17,.22-.17,.38-.17,1.73,0,3.45,0,5.18,0,.07,0,.17-.06,.23,.06-.47,.54-.99,1.03-1.53,1.49-.28,.24-.3,.54-.07,.76,.21,.2,.46,.18,.75-.06,2.18-1.84,3.73-4.12,4.63-6.83,.07-.21,.18-.3,.39-.34,1.09-.2,1.89-1.13,1.9-2.24,.01-1.45,.01-2.91,0-4.36,0-1.13-.79-2.06-1.91-2.27Zm-3.15-3.66c.74,1.07,1.33,2.2,1.76,3.43,.02,.06,.03,.12,.06,.2-.1,0-.19,.01-.27,.01-1.94,0-3.88,0-5.83,0-.15,0-.27,.01-.34-.19-.38-1.21-.87-2.38-1.45-3.5-.02-.05-.04-.1-.06-.17h1.06c1.54,0,3.08,0,4.62,0,.21,0,.33,.06,.45,.23Zm-1.01-1.21h-1.01c-1.46,0-2.93,0-4.39,0-.16,0-.28,0-.38-.17-.95-1.63-2.06-3.13-3.38-4.48-.03-.03-.05-.07-.08-.11,3.12,.09,7.97,2.59,9.24,4.76Zm-13.11-1.91c.7-.94,1.48-1.82,2.33-2.62,.11-.1,.17-.15,.31-.02,1.12,.99,2.95,3.27,3.61,4.53h-7.53c.38-.67,.82-1.29,1.27-1.89Zm-2.35,3.85c.16-.32,.26-.74,.53-.91,.25-.16,.67-.05,1.02-.05,2.44,0,4.88,0,7.32,0,.27,0,.4,.09,.52,.32,.55,1.07,1.03,2.17,1.43,3.3,.06,.18,.07,.26-.16,.26-3.88,0-7.77,0-11.65,0-.05,0-.1,0-.18-.01,.32-1.01,.72-1.96,1.18-2.89Zm-7.45,.34c.25-.44,.45-.99,.86-1.24,.38-.23,.93-.06,1.41-.06,1.39,0,2.78,0,4.17,0h.4c-.63,1.23-1.15,2.45-1.55,3.7-.03,.1-.06,.17-.19,.17-2.07,0-4.14,0-6.24,0,.29-.92,.69-1.76,1.15-2.57Zm1.01,15.42c-.1,0-.18-.03-.25-.11-.59-.69-1.66-2.79-1.88-3.72,.07-.07,.16-.03,.24-.03,1.94,0,3.88,0,5.83,0,.22,0,.31,.06,.38,.28,.35,1.13,.81,2.21,1.34,3.27,.05,.1,.09,.19,.16,.33-1.98,0-3.9,0-5.82,0Zm.66,1.03c.1-.09,.19-.06,.27-.06,1.71,0,3.43,0,5.14,0,.17,0,.29,0,.4,.19,.95,1.62,2.05,3.11,3.36,4.45,.03,.03,.05,.07,.11,.15-3.74-.41-6.8-1.99-9.29-4.73Zm13.12,1.86c-.7,.93-1.46,1.8-2.31,2.59-.08,.08-.14,.22-.31,.06-1.42-1.34-2.62-2.86-3.66-4.56h7.56c-.39,.68-.83,1.3-1.28,1.9Zm1.97-3.09c-.07,.14-.16,.2-.33,.2-2.76,0-5.51,0-8.27,0-.13,0-.24,0-.32-.16-.62-1.16-1.15-2.35-1.56-3.6,0-.03,0-.06-.01-.11h12.04c-.18,.62-.42,1.21-.67,1.79-.27,.64-.58,1.26-.89,1.87Zm7.88-1.18c-.24,.41-.51,.81-.76,1.21-.08,.12-.17,.17-.32,.17-1.89,0-3.78,0-5.67,0-.03,0-.06-.01-.11-.02,.2-.42,.39-.82,.58-1.23,.36-.78,.67-1.57,.93-2.39,.04-.12,.06-.23,.25-.23,2.04,.01,4.08,0,6.12,0,.02,0,.04,.02,.07,.03-.27,.86-.64,1.67-1.09,2.45Zm3.35-4.96c0,.94-.56,1.5-1.5,1.5-4.74,0-9.49,0-14.23,0s-9.38,0-14.07,0c-1.07,0-1.6-.52-1.6-1.59,0-1.31,0-2.63,0-3.94,0-.94,.56-1.5,1.5-1.5,9.47,0,18.94,0,28.4,0,.94,0,1.5,.56,1.5,1.5,0,1.35,0,2.69,0,4.04Z"/></g><image class="cls-5" width="1821" height="1188" transform="scale(.1 .05)" xlink:href="../../../Content/foil_colour.png"/></g></g></g></svg>