<svg xmlns="http://www.w3.org/2000/svg" xmlns:xlink="http://www.w3.org/1999/xlink" width="1920" height="525.964" viewBox="0 0 1920 525.964"><defs><clipPath id="a"><rect width="1920" height="525.964" fill="#e0a20f"/></clipPath></defs><g clip-path="url(#a)"><path d="M1917.606,59.018H-.558c-2.158,2.343-1.815,5.261-1.815,8.076C-2.386,108.433,0,90.753.02,132.09A21.617,21.617,0,0,0,.4,137.543a13.749,13.749,0,0,0,2.869,5.322c8.321,10.826,9.477,22.809,6.261,35.691-2.261,9.05-6.63,17.415-8.389,26.6a39.679,39.679,0,0,0-.422,16.674,20.251,20.251,0,0,0,2.41,4.911c8.712,13.647,26.679,14.471,36.525,1.723,4.756-6.157,6.06-13.05,5.147-20.669a159.306,159.306,0,0,0-6.835-31.463c-3.187-9.6-6.766-19.305-5.112-29.729,2.447-15.429-.618-32.551,6.733-46.37,24.381-45.832,72.7,53.418,95.742,12.937,2.622-5.875,7.815-8.911,15.531-6.466,8.356,2.649,14.587-5.68,22.406-1.576,9.056,4.752,15.915,12.01,21.954,19.948a138.27,138.27,0,0,1,26.218,60.408,94.72,94.72,0,0,0,2.446,11.321c1.751,5.7,4.258,11.024,8.929,14.986,5.219,4.428,9.8,3.951,14.206-1.335a25,25,0,0,0,3.289-5.816c3.653-7.962,3.331-19.242,6.455-27.4,2.2-5.754,1.737-8.273,6.118-12.69,2.419-1.963,7.095-8.079,12.5,0a55.946,55.946,0,0,1,5.9,12.69c1.894,5.366,3.165,10.934,5.426,16.183,5.195,12.07,13.034,15.8,25.46,11.82,5.826-1.865,11.624-3.812,17.756-4.309,14.069-1.145,21.11,3.76,24.1,17.411,3.387,15.48,2.87,31.067.168,46.616-2.573,14.811-7.171,29.226-8.6,44.262-.891,9.4,1.246,17.741,8.281,24.434,8.488,8.072,15.874,6.958,21.7-3.183,5.384-9.371,5.588-19.506,3.728-29.633-3.6-19.586-7.754-39.032-6.78-59.176.591-12.16-.26-24.422,3.11-36.319,3.39-11.966,11.009-20.077,23.319-22.4,9.152-1.729,32.422-3.655,39.618-9.066,6.99-5.256,13.491-11.115,20.013-16.946,5.751-5.145,11.4-10.428,17.911-14.672a49.691,49.691,0,0,1,18.732-7.055c9.319-1.65,19.732,4.164,25.086,14.9,10.293,20.653,13.286,42.422,8.181,65.107-.485,2.155-1.438,4.282-.5,6.548a3.412,3.412,0,0,0,.587.452,58.1,58.1,0,0,0-4,12.916,16.007,16.007,0,0,0-2.463,7.627h0c.02-.012.032-.027.05-.04-3.725,9.432-2.333,18.382,2.558,27h0c.027.391.033.784.022,1.176,9.873,12.553,21.51,12.839,30.471.51a34.192,34.192,0,0,0,5.845-26.093c-2.007-12.342-5.334-24.47-8.1-36.692-.059.022-.117.049-.176.071.371-.307.755-.6,1.12-.913,1.507-5.842-.24-11.895,1.131-17.751.986-5.19,2.387-10.278,3.447-15.448,2.74-13.344,6.321-26.458,12.522-38.665,7.591-14.949,22.729-22.8,36.484-8.257a181.966,181.966,0,0,0,33.478,27.221c1.86.986,3.517,2.655,5.934,1.679.016-.023.038-.043.053-.067,5.986,4.909,12.9,8.324,19.726,11.787,34.672,17.6,71.926,23.915,110.377,24.453,49.391.691,97.98-8.187,146.935-12.683,26.593-2.442,53.187-3.776,79.6,1.827,28.978,6.15,56.394,17.025,83.807,27.869,42.719,16.9,84.9,35.267,129.178,47.942,24.286,6.951,48.788,12.911,74.409,9.586,14.742-1.914,28-6.771,37.186-19.476,8.883-12.286,18.642-23.645,33.509-29.092.1-.089.2-.164.293-.248a5.415,5.415,0,0,0,.573.772c2.272.669,4.365-.2,6.457-.843a41.806,41.806,0,0,1,24.9-.209c24.673,6.488,27.529,26.963,18.264,45.435a69.032,69.032,0,0,1-11.441,15.733,9.381,9.381,0,0,0-1.608,4.792,37.089,37.089,0,0,0-7.672,12.593c-3.748,9.926-.871,18.134,8.093,23.9.6,1.6,2.248,2.038,3.677,2.716,15.232.959,23.655-5.191,27.318-20.039,2.947-11.936,2.69-24.2,3.157-36.333.407-10.575,4.084-19.748,9.241-28.628a9.652,9.652,0,0,1,7.427-4.773c20.857-2.954,39.827-.834,52.92,18.647a87.892,87.892,0,0,0,17.679,19.3c14.865,12.01,26.969-45.68,45.088-44.2s25.284,29.616,27.387,50.117a24.184,24.184,0,0,0,1.891,8.242c3.375,7.006,7.657,7.971,13.279,2.651,3.531-3.343,6.663-7.119,9.876-10.788,5.352-6.113,10.152-12.742,16.658-17.77,5.351-4.137,11.085-7.308,17.932-3.867,6.767,3.4,9.05,9.51,8.994,16.733-.061,7.725-.319,15.457-.1,23.174.3,10.864,5.661,15.935,16.347,16.275,4.252.136,8.506.582,12.734,1.091,18.669,2.251,25.577,12.447,21.478,30.934-3.81,17.185-12.4,32.088-21.453,46.844-6.042,9.851-13.165,19.112-16.667,30.372-2.466,7.931-.231,14.889,4.516,21.149,3.4,4.487,8.132,5.037,12.981,1.921a30.393,30.393,0,0,0,11.935-15.008c3.456-8.8,4.526-18.1,5.743-27.337,3.067-23.276,10.809-45.022,21.852-65.566,7.388-13.745,17.39-18.231,32.9-16.112a38.333,38.333,0,0,0,18.048-1.736c7.86-2.742,15.662-5.657,23.476-8.528,10.058-3.7,19.649-8.48,30.635-9.7,14.682-1.634,26.79,5.518,29.6,19.942,3.525,18.135,1.938,35.97-6.5,52.766-4.96,9.866-11.639,18.608-18.651,27.056a42.074,42.074,0,0,0-9.758,22.562c-.979,8.422,2.65,17.241,8.5,20.165,6.545,3.27,15.475,1.348,21.862-4.6a35.579,35.579,0,0,0,9.557-16.038c2.289-7.412,2.839-15.113,3.607-22.776,1.053-10.53,2.013-21.218,7.726-30.425,8.67-13.981,16.881-28.3,27.669-40.871,2.781-3.238,5.49-6.492,9.9-7.558V113.479ZM1047.915,78.7l-.2-.152.23-.026c-.007.057-.022.121-.027.177M888.885,70c-.015.012-.029.023-.043.035-.034-.028-.07-.055-.1-.084.05.015.1.035.147.049" transform="translate(0 -59.018)" fill="#e0a20f"/></g></svg>