<svg xmlns="http://www.w3.org/2000/svg" width="1526.91" height="318.12" viewBox="0 0 1526.91 318.12"><g transform="translate(-199.87 -1373.5)"><path d="M138.89,333c82.83,0,132.66-51.81,132.66-125.07,0-71.61-49.5-122.43-132.99-122.43H41.87V333Zm-2.64-168.3c29.04,0,44.22,16.83,44.22,43.89,0,26.4-14.85,43.56-43.89,43.56h-7.59V164.7ZM460.31,333V262.05H390.35V250.5l68.64-85.8V85.5H282.77v70.95h75.9V168l-77.88,97.35V333Zm111.21,0V85.5H481.1V333Zm139.59,66.66V377.55a44.577,44.577,0,0,1-12.21,1.65c-9.57,0-13.2-3.3-13.2-8.25,0-10.23,15.51-23.76,41.91-37.95h32.34V262.05H685.04V237.3h70.29V177.24H685.04V156.45h73.92V85.5H594.62V333H699.89c-20.46,11.55-40.26,28.71-40.26,47.52,0,14.85,11.22,23.1,29.37,23.1C698.57,403.62,705.17,402.63,711.11,399.66ZM917.36,333h100.32L965.54,199.35,1011.08,85.5H914.06l-30.03,87.78H871.82V85.5H781.4V333h90.42V238.95h14.85Zm319.77-100.65V85.5h-90.42V236.31c0,12.54-6.93,21.78-18.15,21.78s-18.15-9.24-18.15-21.78V85.5h-90.42V232.35c0,64.68,42.9,105.27,108.57,105.27C1194.56,337.62,1237.13,297.03,1237.13,232.35ZM1301.48,333c51.48,0,78.87-26.73,78.87-76.89V85.5h-90.42V241.92c0,12.21-6.27,19.14-17.49,19.14h-20.79V333Zm218.46,66.66V377.55a44.579,44.579,0,0,1-12.21,1.65c-9.57,0-13.2-3.3-13.2-8.25,0-10.23,15.51-23.76,41.91-37.95h32.34V262.05h-74.91V237.3h70.29V177.24h-70.29V156.45h73.92V85.5H1403.45V333h105.27c-20.46,11.55-40.26,28.71-40.26,47.52,0,14.85,11.22,23.1,29.37,23.1C1507.4,403.62,1514,402.63,1519.94,399.66Z" transform="translate(158 1288)" fill="#f65c04"/><path d="M-9.75,112.25C-20.75,103-25,97.75-25,92.25c0-3,1.5-6.25,3.75-10.5C-5.25,60,35,53.5,74,50.25c10.25-1,20.25-1.75,35-2.5-.75,6-1.75,13.25-3,21-2.75,21.25-5,48.25-7,75.5-1.75,27-3.5,61.75-3.75,83.25,0,4.25-.25,8.5-.25,12.25,0,5.5.25,10.5.5,14.75.25,6.25.5,12,2.25,14.75,0,.25.25.5,0,.75a11.063,11.063,0,0,0,6.5,4.25c1.5,0,3-.5,2.25-1.75L106,271c-.25-.5-1-3.5-1-12.5-.25-5-.5-11-.5-18.25V232c.25-21.5,2-56.25,3.75-83.25,1.75-27.25,4.25-54.25,7-75.5a220.138,220.138,0,0,1,4.5-26h2.75c7-.25,14.5-.25,22-.25,11.5,0,23.5.25,35.25.25,24.5,0,48.25-.5,66.25-3,11-1.25,22.5-12.25,7-10-23,3.25-46.25,4-69.25,4-16.5,0-32.75-.25-49-.25h-12.5a19.6,19.6,0,0,1,2-4.5c1-1,0-3.5-2.25-5-2.75-2-4.75-2.25-6.25-1.5-1.75,2-2.75,6-4,11.25-15.75.5-29.75,1.5-43.5,3C29.5,44.25-11.25,53-27.5,77a24.945,24.945,0,0,0-3.75,13.5c0,10.25,5,20.5,13,22.5C-13.5,114.25-10,114.25-9.75,112.25Zm171.75,92c1,4,8.75,7.25,8.5,3.5,1-11.5,27.25-38,41.5-37.25,0,1.75-.5,4.75-.5,8.25,0,5.25,1.25,11.75,7,16a29.494,29.494,0,0,0,16.75,5c16,0,34.75-9.5,40.25-17.75,3.75-5.5,5-13.5,2.75-10.75-8,10.75-35,21.25-48,21.25a17.778,17.778,0,0,1-8-1.75c-1.75-7.25.25-14.25-.5-20.25-1-3.25-4.75-6.25-8.25-7.25-14.25-4.5-35.5,15.5-43.25,24.25V165.25c.5-34.25,1-66.75,4.25-98.75,0-3.75-9.75-6.75-9.75-3.25-1.75,32-3,62.75-3,97.25V196C161.75,200.75,161.75,203.75,162,204.25Zm111.25-5a16.321,16.321,0,0,0,9,2.5c13.25,0,29.75-12.75,36.75-19,3.25,9,9.5,13.75,17.75,15.75,10.5,2.5,27.75-5.5,34-11.75,13.75-13.75,10-20,5.75-15.75-9,10-30.5,22.75-43.25,20.25-4.5-1.25-5.75-6.25-5.5-10.5.5-4.75,2.75-9.25,4-13,1.75-3-6.75-8.5-8.25-5.75l-4.25,5.75H319a50.685,50.685,0,0,0-20.25-4.25c-8.75,0-17.25,2.25-24,6.75-6.25,4.25-9,9.75-9,15.25C265.75,190.75,268.25,195.5,273.25,199.25Zm4.5-5.5c-3.75-.25-5.25-3-4.5-6C276,176.25,292.5,171.5,305,171.5a35.573,35.573,0,0,1,9.75,1.25C306,182,289.75,192.25,277.75,193.75Zm94.5,3.25c.25,4,9,6.25,8.75,3l.25-5.75c4.75-10.5,23.75-22.5,42.25-24.5a51.035,51.035,0,0,0-.75,8.5c0,4.5.75,8.75,3.25,12.5,4.5,6.5,12.5,9.5,19.75,9.5,17.5,0,33.75-13.25,39.75-21,3.75-4.75,2.75-10.25,1.75-9.75-8,4-29.75,23.75-45.25,23.75a12.868,12.868,0,0,1-8.5-2.75c-3.25-4.75-.5-14.25-.5-18.5,0-3.75-4.5-8.25-9.25-8.75-14-1.5-32,7.5-40.5,13.75l.5-8.5c.25-1.5-2-3.75-4-5-2.5-1-5-.75-5,1l-2.5,25A24.893,24.893,0,0,0,372.25,197ZM583,182.25c4.25-4,7.25-14.75,4-12-10,8.5-31.5,23-49.5,24.25-10.5.75-23.25-4.5-27.5-9.75,12-3.5,29.75-17.75,26-27-1.25-3-4.75-7-10.25-6.5-14.5,1.25-25.5,17.5-33.5,31,2.25-47,2.75-83,3.75-115.25-.25-1.5-2.5-3.5-5.25-4.25-2.25-1-4.5,0-4.5,1.5-.5,31-2.75,78.5-2.75,123,0,9.25.25,18.5.75,27.25,1.5,4.25,8.25,7.5,8.25,3.75.25-11.5,3.25-24,8.75-31,9.5,11.5,24.75,16.25,37.25,16.25C562.25,203.5,578.25,186.75,583,182.25Zm-56.25-24c1.75,6.5-15.25,20.75-21.25,21.25C515.25,164,523.5,157,526.75,158.25Z" transform="translate(436 1356)" fill="#e0a20f"/><path d="M222.125,200l-6.25,4.5c-25.25,18.75-45.25,43.75-49,63-1.25,9,2.75,18,9.5,25,7,7,17,11,23.25,9.75,21.75-4.5,28.5-38.75,30.5-70.25l.75-23.25.25-3,7.25-5c10.5-6.25,27-15.25,37-18.25,2-.5,2.25-1,0-3-5.75-5.25-37.5,10.25-44.25,14.25l-.25.25v-1c-.25-14.5-1.5-24.75-1.75-25.25-.25-2.75-4.5-5.75-7-5.75-1,0-2,.25-2.25.75-.25.25-.5.25,0,.5-.25.25-.75.5-.75,1-.5,8-22.5,37.25-33,31.25-4.25-2.5-4.75-9.75-5.25-13.75a71.609,71.609,0,0,1,1.5-9.25c1.25-2.5,2.5-4,3.5-4.25,1.25-.5,1.25-2.75-.75-4.75s-4.75-3-6.25-2.5c-2.5.75-4,3.25-5,6a28.523,28.523,0,0,0-1.75,10.25,36.575,36.575,0,0,0,2.25,12c3.25,8,11.25,14.25,19.5,14.25s19.75-10,27-19.75Zm-29.25,94.75c-3,.75-7.75-1.25-11.5-4.75-3-3.5-6.75-9.75-5.25-17.5,2.75-16.75,19.75-37,40-55.5l5.75-5.25C222.125,246.75,211.875,291,192.875,294.75ZM342.125,173.5c6-2,7.75-5.25.5-5-2.25,0-12,1-23.75,1a158.549,158.549,0,0,1-18.5-1,25.389,25.389,0,0,0-16-8.75c-5-.25-6.75,2.5-7.75,6-.5,0-.75.25-1.25.25-5.75,2-12.25,14-10.5,24.5,1.25,7,7.5,14.75,16.75,15.25,11.5.75,21.75-5.5,24-18a22.108,22.108,0,0,0-.5-10.75C320.375,177.75,336.625,175.5,342.125,173.5Zm-61.75-2,.5-.5c3.5,2.25,8.25,3.75,14,4.75,4,9-1.5,23.25-12.5,23.75-4.75.25-7.5-2.5-8.75-9.75C272.375,182.75,277.125,174,280.375,171.5Zm84.25,31.75c10.25,0,17.5-8.75,22.5-16,3.5,8.25,11.25,14.25,21,14.25,17.25,1,30-12.5,35-20.25,3-4.75,3.25-12.25,1-9.25-8.25,8.25-23.25,21.5-40.5,22.25-7-.75-8.75-6.75-9.75-12.75a87.915,87.915,0,0,1,.5-10.25c.5-3.75-8.25-8.25-9-4.75-2,9-18.75,35.5-29,28.5-2.75-1.75-3.75-5.75-3.75-10.25,0-6.5,2.25-13.75,5.75-16,1.25-.75,1.75-2.25-.25-4.25-2-2.25-4.75-3.5-6.75-3-2.25.75-3.75,3-5,5.5a23.935,23.935,0,0,0-2.75,11.75,30.221,30.221,0,0,0,1.5,9.5C347.875,196.75,356.375,203.25,364.625,203.25Z" transform="translate(983 1339)" fill="#e0a20f"/></g></svg>