<svg xmlns="http://www.w3.org/2000/svg" xmlns:xlink="http://www.w3.org/1999/xlink" width="1922" height="79.423" viewBox="0 0 1922 79.423"><defs><style>.a{fill:none;}.b{fill:#e0a20f;}.c{fill:#040504;}.d{clip-path:url(#a);}.e{isolation:isolate;}.f{fill:#0d0f0e;font-size:40px;font-family:PPNeueMachina-Ultrabold, PP Neue Machina;font-weight:700;}.g{letter-spacing:-0.039em;}.h{letter-spacing:-0.059em;}.i{letter-spacing:-0.02em;}.j{clip-path:url(#c);}.k{letter-spacing:-0.03em;}.l{letter-spacing:-0.009em;}.m{letter-spacing:-0.01em;}.n{letter-spacing:-0.019em;}.o{clip-path:url(#e);}.p{letter-spacing:-0.029em;}.q{clip-path:url(#g);}.r{letter-spacing:-0.04em;}</style><clipPath id="a"><rect class="a" width="157.155" height="48.779"/></clipPath><clipPath id="c"><rect class="a" width="295.598" height="48.779"/></clipPath><clipPath id="e"><rect class="a" width="295.6" height="48.779"/></clipPath><clipPath id="g"><rect class="a" width="295.599" height="48.779"/></clipPath></defs><g transform="translate(0 -966)"><rect class="b" width="1919.998" height="79.423" transform="translate(2.002 966)"/><path class="c" d="M132.928,0,128.8,4.947V44.664L166.061,0Z" transform="translate(-126.799 966)"/><path class="c" d="M195.061,0,128.8,79.423h33.137L228.2,0Z" transform="translate(-126.799 966)"/><path class="c" d="M257.2,0,190.939,79.423h33.138L290.343,0Z" transform="translate(-126.799 966)"/><path class="c" d="M319.342,0,253.077,79.423h33.136L352.48,0Z" transform="translate(-126.799 966)"/><path class="c" d="M381.482,0,315.215,79.423h33.138L414.619,0Z" transform="translate(-126.799 966)"/><path class="c" d="M443.62,0,377.354,79.423h33.138L476.762,0Z" transform="translate(-126.799 966)"/><path class="c" d="M505.762,0,439.49,79.423h33.138L538.9,0Z" transform="translate(-126.713 966)"/><path class="c" d="M567.9,0,501.629,79.423h33.139L601.034,0Z" transform="translate(-126.696 966)"/><path class="c" d="M630.035,0,563.768,79.423h33.138L663.173,0Z" transform="translate(-126.679 966)"/><path class="c" d="M692.173,0,625.907,79.423h33.138L725.311,0Z" transform="translate(-126.662 966)"/><path class="c" d="M754.311,0,688.045,79.423h33.137L787.449,0Z" transform="translate(-126.645 966)"/><path class="c" d="M816.448,0,750.182,79.423H783.32L849.586,0Z" transform="translate(-126.628 966)"/><path class="c" d="M878.588,0,812.322,79.423h33.14L911.726,0Z" transform="translate(-126.611 966)"/><path class="c" d="M940.726,0,874.462,79.423H907.6L973.862,0Z" transform="translate(-126.594 966)"/><path class="c" d="M1002.862,0,936.6,79.423h33.138L1036,0Z" transform="translate(-126.577 966)"/><path class="c" d="M1065,0,998.735,79.423h33.139L1098.139,0Z" transform="translate(-126.56 966)"/><path class="c" d="M1127.141,0l-66.266,79.423h33.138L1160.279,0Z" transform="translate(-126.543 966)"/><path class="c" d="M1189.28,0l-66.267,79.423h33.138L1222.418,0Z" transform="translate(-126.526 966)"/><path class="c" d="M1251.417,0l-66.266,79.423h33.138L1284.555,0Z" transform="translate(-126.509 966)"/><path class="c" d="M1313.556,0,1247.29,79.423h33.136L1346.693,0Z" transform="translate(-126.492 966)"/><path class="c" d="M1375.694,0l-66.266,79.423h33.133L1408.832,0Z" transform="translate(-126.475 966)"/><path class="c" d="M1437.833,0l-66.271,79.423H1404.7L1470.971,0Z" transform="translate(-126.458 966)"/><path class="c" d="M1499.97,0,1433.7,79.423h33.138L1533.108,0Z" transform="translate(-126.441 966)"/><path class="c" d="M1562.108,0l-66.265,79.423h33.138L1595.246,0Z" transform="translate(-126.424 966)"/><path class="c" d="M1624.248,0l-66.267,79.423h33.138L1657.385,0Z" transform="translate(-126.407 966)"/><path class="c" d="M1686.386,0,1620.12,79.423h33.142L1719.524,0Z" transform="translate(-126.39 966)"/><path class="c" d="M1748.524,0l-66.262,79.423H1715.4L1781.661,0Z" transform="translate(-126.3 966)"/><path class="c" d="M1810.661,0,1744.4,79.423h33.138L1843.8,0Z" transform="translate(-126.3 966)"/><path class="c" d="M1872.8,0l-66.267,79.423h33.138L1905.939,0Z" transform="translate(-126.3 966)"/><path class="c" d="M1934.939,0l-66.266,79.423h33.138L1968.077,0Z" transform="translate(-126.3 966)"/><path class="c" d="M1997.077,0,1930.81,79.423h33.137L2030.214,0Z" transform="translate(-126.3 966)"/><path class="c" d="M1992.949,79.423h33.138L2048.3,52.8V13.082Z" transform="translate(-126.3 966)"/><rect class="b" width="1919.999" height="57.066" transform="translate(2.001 977.178)"/><g transform="translate(0 977.178)"><g class="d"><g class="e"><g class="d"><text class="f" transform="translate(30.355 42.099)"><tspan class="g" x="0" y="0">G</tspan><tspan y="0">r</tspan><tspan class="h" y="0">y</tspan><tspan class="i" y="0">g</tspan><tspan y="0">o</tspan></text></g></g></g></g><g class="e" transform="translate(569.376 983.901)"><g class="j"><g class="e"><g class="j"><text class="f" transform="translate(0 34.1)"><tspan class="k" x="0" y="0">M</tspan><tspan class="l" y="0">a</tspan><tspan class="m" y="0">r</tspan><tspan class="g" y="0">c</tspan><tspan class="n" y="0">i</tspan><tspan y="0">n </tspan><tspan class="g" y="0">G</tspan><tspan y="0">r</tspan><tspan class="h" y="0">y</tspan><tspan class="n" y="0">g</tspan><tspan y="0">o</tspan></text></g></g></g></g><g class="e" transform="translate(1265.589 983.901)"><g class="o"><g class="e"><g class="o"><text class="f" transform="translate(0 34.1)"><tspan class="p" x="0" y="0">M</tspan><tspan class="l" y="0">a</tspan><tspan class="m" y="0">r</tspan><tspan class="g" y="0">c</tspan><tspan class="n" y="0">i</tspan><tspan y="0">n </tspan><tspan class="g" y="0">G</tspan><tspan y="0">r</tspan><tspan class="h" y="0">y</tspan><tspan class="n" y="0">g</tspan><tspan y="0">o</tspan></text></g></g></g></g><g class="e" transform="translate(221.201 977.321)"><g class="q"><g class="e"><g class="q"><text class="f" transform="matrix(1, 0, 0, -1, 0, 14.68)"><tspan class="k" x="0" y="0">M</tspan><tspan class="l" y="0">ar</tspan><tspan class="r" y="0">c</tspan><tspan class="n" y="0">i</tspan><tspan y="0">n </tspan><tspan class="g" y="0">G</tspan><tspan y="0">r</tspan><tspan class="h" y="0">y</tspan><tspan class="n" y="0">g</tspan><tspan y="0">o</tspan></text></g></g></g></g><g class="e" transform="translate(917.482 977.321)"><g class="o"><g class="e"><g class="o"><text class="f" transform="matrix(1, 0, 0, -1, 0, 14.68)"><tspan class="p" x="0" y="0">M</tspan><tspan class="l" y="0">a</tspan><tspan class="m" y="0">r</tspan><tspan class="g" y="0">c</tspan><tspan class="n" y="0">i</tspan><tspan y="0">n </tspan><tspan class="g" y="0">G</tspan><tspan y="0">r</tspan><tspan class="h" y="0">y</tspan><tspan class="n" y="0">g</tspan><tspan y="0">o</tspan></text></g></g></g></g><g class="e" transform="translate(1613.7 977.321)"><g class="o"><g class="e"><g class="o"><text class="f" transform="matrix(1, 0, 0, -1, 0, 14.68)"><tspan class="p" x="0" y="0">M</tspan><tspan class="l" y="0">a</tspan><tspan class="m" y="0">r</tspan><tspan class="g" y="0">c</tspan><tspan class="n" y="0">i</tspan><tspan y="0">n </tspan><tspan class="g" y="0">G</tspan><tspan y="0">r</tspan><tspan class="h" y="0">y</tspan><tspan class="n" y="0">g</tspan><tspan y="0">o</tspan></text></g></g></g></g></g></svg>